<?xml version="1.0" standalone="no"?>
<!DOCTYPE svg PUBLIC "-//W3C//DTD SVG 20010904//EN"
 "http://www.w3.org/TR/2001/REC-SVG-20010904/DTD/svg10.dtd">
<svg version="1.0" xmlns="http://www.w3.org/2000/svg"
 width="1500.000000pt" height="1500.000000pt" viewBox="0 0 1500.000000 1500.000000"
 preserveAspectRatio="xMidYMid meet">

<g transform="translate(0.000000,1500.000000) scale(0.100000,-0.100000)"
fill="#000000" stroke="none">
<path d="M3511 13869 c-449 -58 -850 -339 -1060 -740 -57 -108 -103 -236 -134
-364 -20 -88 -21 -115 -26 -1220 l-6 -1130 -24 -104 c-120 -537 -441 -902
-936 -1065 -68 -22 -203 -55 -227 -56 -5 0 -8 -175 -8 -389 l0 -390 58 -11
c188 -36 439 -145 582 -254 274 -207 449 -488 531 -857 l24 -104 6 -1130 c5
-1105 6 -1132 26 -1220 69 -291 196 -519 399 -714 208 -201 446 -324 729 -377
97 -18 230 -19 4035 -19 3805 0 3938 1 4035 19 293 55 530 180 741 390 160
161 271 337 339 539 45 134 63 248 95 602 5 55 9 466 10 913 0 503 4 850 11
910 60 549 322 952 763 1174 111 56 268 111 369 129 l67 12 0 387 0 387 -67
12 c-161 29 -379 121 -533 224 -96 64 -283 251 -347 347 -137 205 -221 449
-252 732 -7 60 -11 416 -12 935 0 461 -4 874 -9 918 -5 44 -13 132 -19 195
-23 234 -71 405 -162 579 -193 368 -526 622 -954 724 l-90 22 -3945 1 c-2170
1 -3974 -2 -4009 -7z m5884 -2530 c60 -56 74 -101 50 -166 -15 -42 -300 -331
-2464 -2498 -1345 -1347 -2455 -2455 -2466 -2462 -30 -19 -91 -15 -138 8 -29
14 -402 381 -1180 1157 -909 909 -1140 1144 -1149 1173 -6 23 -8 60 -3 94 l7
58 731 725 c403 400 950 943 1217 1208 267 265 499 489 517 498 18 9 52 16 77
16 37 0 52 -6 81 -31 68 -60 65 -23 65 -719 0 -441 -3 -638 -11 -653 -6 -12
-248 -259 -537 -549 l-525 -526 -5 -57 -5 -57 364 -364 c369 -369 399 -395
451 -378 30 9 114 91 1966 1929 1020 1012 1618 1598 1645 1612 l42 22 613 1
612 0 45 -41z m1198 -30 c29 -14 401 -380 1175 -1152 623 -623 1140 -1144
1148 -1159 15 -28 18 -94 8 -146 -5 -25 -262 -285 -1220 -1234 -668 -662
-1229 -1211 -1246 -1221 -40 -21 -99 -22 -138 -2 -16 8 -43 35 -60 60 l-30 44
2 640 3 641 532 532 c569 571 564 564 542 641 -6 23 -104 127 -366 389 -197
196 -369 361 -384 367 -59 22 -65 17 -529 -443 -2474 -2455 -3108 -3080 -3145
-3097 -37 -17 -80 -19 -649 -19 l-609 0 -34 26 c-70 53 -91 128 -57 197 9 18
1109 1126 2445 2462 1336 1337 2429 2435 2429 2442 0 20 64 53 103 53 21 0 57
-9 80 -21z m996 -5814 c206 -70 369 -235 437 -441 26 -79 29 -103 29 -214 0
-111 -3 -135 -29 -214 -69 -209 -233 -373 -443 -442 -78 -26 -102 -29 -213
-29 -111 0 -135 3 -214 29 -209 69 -373 233 -442 443 -26 78 -29 102 -29 213
0 111 3 135 29 213 47 145 142 272 268 358 126 86 246 120 408 116 93 -3 131
-9 199 -32z m509 -1169 c32 -30 37 -40 37 -79 0 -56 -28 -96 -79 -116 -31 -12
-41 -12 -79 3 -127 48 -91 224 46 226 29 0 46 -8 75 -34z"/>
<path d="M11290 5461 c-243 -33 -445 -206 -520 -446 -17 -53 -22 -95 -22 -175
0 -175 59 -319 181 -441 122 -122 266 -181 441 -181 175 0 319 59 441 181 122
122 181 266 181 441 0 175 -59 319 -181 441 -136 135 -336 204 -521 180z m128
-67 l31 -6 3 -132 3 -131 135 -5 c155 -6 192 -19 253 -91 48 -55 67 -116 67
-209 0 -66 -4 -86 -31 -139 -17 -33 -45 -72 -62 -85 -70 -52 -96 -60 -227 -64
-69 -2 -129 -8 -133 -12 -11 -10 14 -59 46 -88 14 -13 44 -29 68 -36 38 -11
44 -17 47 -43 3 -28 0 -31 -35 -36 -57 -10 -476 -8 -491 2 -8 4 -12 20 -10 36
2 23 10 30 47 41 50 15 96 54 110 96 13 36 14 36 -124 40 -95 4 -117 8 -161
31 -112 57 -170 187 -144 321 14 73 32 110 74 154 58 63 97 76 236 82 l125 5
0 30 0 30 -80 5 -80 5 0 30 c0 28 3 30 62 42 83 16 142 46 188 93 22 22 42 40
46 40 3 0 20 -3 37 -6z"/>
<path d="M11150 5014 c-193 -84 -152 -369 56 -386 l39 -3 3 203 2 202 -32 0
c-18 -1 -49 -8 -68 -16z"/>
<path d="M11452 4828 l3 -203 40 3 c82 7 156 74 176 160 25 113 -75 241 -189
242 l-32 0 2 -202z"/>
<path d="M11990 4321 c0 -6 14 -11 31 -13 40 -4 59 -30 42 -58 -10 -15 -10
-25 -1 -46 11 -24 13 -25 25 -8 22 30 16 73 -16 105 -28 28 -81 41 -81 20z"/>
<path d="M11947 4278 c-19 -41 -11 -80 21 -104 20 -16 78 -18 87 -4 3 6 0 10
-8 10 -8 0 -17 7 -21 15 -3 8 -10 15 -16 15 -6 0 -9 -4 -6 -9 3 -5 -1 -14 -9
-21 -19 -16 -24 -4 -27 75 l-3 60 -18 -37z"/>
<path d="M12010 4270 c0 -5 5 -10 10 -10 6 0 10 5 10 10 0 6 -4 10 -10 10 -5
0 -10 -4 -10 -10z"/>
<path d="M1546 3204 c-14 -13 -16 -54 -16 -298 0 -305 3 -321 51 -314 l24 3 3
299 c2 301 0 326 -34 326 -7 0 -20 -7 -28 -16z"/>
<path d="M11556 3198 c-14 -19 -16 -65 -16 -296 0 -169 4 -281 10 -293 6 -11
21 -19 35 -19 14 0 29 8 35 19 6 12 10 124 10 293 0 231 -2 277 -16 296 -8 12
-21 22 -29 22 -8 0 -21 -10 -29 -22z"/>
<path d="M4160 3195 c-60 -19 -124 -75 -158 -139 -24 -46 -27 -61 -27 -156 0
-95 3 -110 27 -156 30 -57 94 -119 144 -140 81 -34 188 -14 259 48 49 43 65
79 45 103 -19 22 -48 18 -66 -10 -9 -13 -40 -36 -70 -51 -73 -35 -128 -28
-186 24 -55 49 -80 109 -80 187 1 101 35 163 107 196 76 35 158 22 228 -37 23
-19 32 -22 48 -14 74 40 -75 162 -195 159 -17 0 -51 -7 -76 -14z"/>
<path d="M4799 3196 c-126 -45 -191 -146 -191 -296 0 -102 29 -180 91 -240
141 -138 370 -69 427 128 21 73 21 166 -1 233 -45 134 -203 219 -326 175z
m149 -90 c73 -38 112 -112 112 -213 0 -80 -23 -137 -69 -176 -88 -73 -203 -55
-268 44 -26 39 -28 50 -28 140 0 92 2 99 30 140 17 23 46 50 65 60 41 23 120
25 158 5z"/>
<path d="M7142 3194 c-21 -15 -22 -22 -22 -202 0 -175 -2 -190 -23 -226 -35
-62 -68 -81 -142 -81 -74 0 -107 19 -142 81 -21 36 -23 51 -23 225 0 201 -3
214 -52 207 l-23 -3 0 -215 c0 -203 1 -217 22 -256 75 -141 255 -177 373 -76
79 67 85 89 88 329 3 200 2 212 -16 222 -14 7 -25 6 -40 -5z"/>
<path d="M9672 3192 c-97 -35 -137 -91 -130 -183 7 -102 52 -131 235 -154 135
-17 163 -31 163 -86 0 -61 -88 -105 -191 -96 -73 6 -117 30 -135 73 -11 25
-20 34 -38 34 -51 0 -57 -52 -14 -113 57 -80 237 -108 349 -56 81 38 104 75
104 166 0 62 -3 75 -24 97 -33 36 -90 54 -204 66 -111 12 -154 29 -163 66 -17
65 43 108 151 108 79 0 129 -20 147 -59 13 -30 44 -41 63 -25 39 32 -4 112
-78 149 -66 33 -164 38 -235 13z"/>
<path d="M10369 3196 c-107 -38 -164 -107 -189 -229 -23 -113 20 -251 100
-319 108 -93 278 -74 365 39 45 59 65 127 65 222 0 63 -5 87 -29 137 -59 126
-196 192 -312 150z m150 -90 c39 -21 87 -77 101 -122 21 -61 8 -175 -24 -224
-83 -126 -255 -112 -317 25 -38 84 -18 238 37 287 54 48 146 63 203 34z"/>
<path d="M11079 3196 c-164 -58 -236 -224 -179 -408 51 -166 218 -245 365
-173 65 31 105 76 105 116 0 22 -6 30 -25 35 -19 5 -30 0 -50 -24 -30 -36
-100 -72 -138 -72 -36 0 -95 25 -126 53 -70 65 -92 201 -46 293 37 73 81 99
170 99 73 0 80 -3 148 -57 l29 -23 18 23 c26 32 14 60 -44 99 -77 52 -153 66
-227 39z"/>
<path d="M13026 3198 c-9 -5 -16 -19 -16 -31 0 -12 47 -93 105 -179 l105 -158
0 -108 c0 -107 7 -132 36 -132 7 0 20 7 28 16 13 12 16 39 16 125 l0 109 98
148 c54 81 101 155 105 165 8 21 -26 59 -47 51 -8 -3 -56 -68 -107 -145 l-93
-140 -90 140 c-50 77 -98 142 -107 144 -9 2 -24 0 -33 -5z"/>
<path d="M1842 3184 c-22 -15 -22 -17 -22 -289 0 -272 0 -274 22 -289 18 -13
55 -16 191 -16 97 0 177 4 188 10 21 12 25 50 7 68 -8 8 -60 12 -170 12 l-158
0 0 85 0 85 149 0 c123 0 152 3 165 16 19 18 19 20 6 45 -10 18 -23 19 -165
19 l-155 0 0 90 0 90 151 0 c84 0 159 5 170 10 11 6 19 21 19 35 0 14 -8 29
-19 35 -11 6 -91 10 -188 10 -136 0 -173 -3 -191 -16z"/>
<path d="M2463 3190 l-23 -9 0 -280 c0 -278 0 -280 22 -295 18 -13 55 -16 191
-16 97 0 177 4 188 10 21 12 25 50 7 68 -8 8 -60 12 -170 12 l-158 0 0 85 0
85 148 0 c81 0 153 4 160 9 8 5 12 21 10 37 l-3 29 -157 3 -158 3 0 89 0 90
151 0 c84 0 159 5 170 10 11 6 19 21 19 35 0 14 -8 29 -19 35 -24 12 -347 12
-378 0z"/>
<path d="M3074 3186 c-18 -14 -19 -29 -19 -290 0 -212 3 -278 13 -288 9 -9 59
-14 175 -16 196 -4 225 0 233 34 12 49 -4 54 -182 54 l-164 0 0 85 0 85 154 0
c165 0 181 5 174 52 -3 23 -5 23 -163 28 l-160 5 -3 88 -3 87 160 0 c132 0
162 3 175 16 9 8 16 22 16 29 0 7 -7 21 -16 29 -22 22 -360 24 -390 2z"/>
<path d="M5351 3181 c-8 -14 -10 -112 -9 -297 3 -251 5 -278 21 -288 12 -8 22
-8 35 0 15 10 18 35 22 205 l5 194 68 -120 c81 -142 97 -161 123 -147 10 6 51
68 91 139 l73 128 0 -177 c0 -97 4 -188 10 -202 14 -37 57 -36 71 1 14 39 8
558 -8 574 -31 31 -57 1 -153 -170 -52 -93 -96 -168 -98 -166 -2 2 -48 79
-101 172 -73 128 -101 169 -118 171 -14 2 -26 -4 -32 -17z"/>
<path d="M6108 3189 c-17 -9 -18 -34 -18 -292 0 -293 2 -307 42 -307 27 0 38
32 38 109 l0 71 91 0 c116 0 161 13 204 61 105 116 49 320 -97 357 -57 15
-236 15 -260 1z m276 -100 c54 -42 72 -120 41 -178 -22 -44 -70 -61 -169 -61
l-86 0 0 130 0 130 94 0 c79 0 97 -3 120 -21z"/>
<path d="M7366 3184 c-19 -18 -20 -28 -6 -55 9 -17 22 -19 105 -19 l95 0 0
-249 c0 -214 2 -252 16 -265 8 -9 19 -16 24 -16 5 0 16 7 24 16 14 13 16 51
16 265 l0 249 93 0 c95 0 117 8 117 41 0 10 -7 25 -16 33 -13 14 -49 16 -234
16 -185 0 -221 -2 -234 -16z"/>
<path d="M8022 3184 c-22 -15 -22 -17 -22 -288 0 -242 2 -275 17 -287 12 -10
62 -15 194 -17 168 -3 179 -2 198 17 21 21 19 48 -3 63 -6 4 -82 8 -168 8
l-158 0 0 85 0 85 155 0 155 0 12 25 c8 19 8 28 -2 40 -10 12 -40 15 -166 15
l-154 0 0 90 0 90 151 0 c84 0 159 5 170 10 21 12 25 50 7 68 -8 8 -64 12
-188 12 -143 0 -180 -3 -198 -16z"/>
<path d="M8638 3190 c-16 -10 -18 -35 -18 -293 0 -293 2 -307 42 -307 28 0 38
33 38 124 l0 86 69 0 68 0 87 -105 c84 -103 108 -119 134 -93 22 22 13 43 -54
123 l-65 78 28 12 c35 16 78 61 92 98 14 36 13 113 -2 155 -16 42 -63 91 -107
110 -44 19 -286 28 -312 12z m318 -122 c55 -61 44 -137 -26 -173 -20 -10 -60
-15 -130 -15 l-100 0 0 116 0 116 111 -4 111 -3 34 -37z"/>
<path d="M11852 3184 c-22 -15 -22 -17 -22 -289 0 -272 0 -274 22 -289 18 -13
55 -16 191 -16 97 0 177 4 188 10 21 12 25 50 7 68 -8 8 -60 12 -170 12 l-158
0 0 85 0 85 149 0 c123 0 152 3 165 16 19 18 19 20 6 45 -10 18 -23 19 -165
19 l-155 0 0 90 0 90 151 0 c84 0 159 5 170 10 11 6 19 21 19 35 0 14 -8 29
-19 35 -11 6 -91 10 -188 10 -136 0 -173 -3 -191 -16z"/>
<path d="M12406 3179 c-9 -14 -12 -29 -7 -43 8 -19 17 -21 105 -24 l96 -3 0
-249 c0 -243 0 -249 22 -264 15 -11 26 -12 40 -5 17 9 18 27 18 264 l0 255 93
0 c59 0 97 4 105 12 18 18 14 56 -7 68 -12 6 -106 10 -235 10 -207 0 -215 -1
-230 -21z"/>
<path d="M2216 2008 c-129 -280 -188 -419 -183 -433 14 -34 39 -14 70 55 l32
70 137 0 138 0 32 -67 c32 -66 62 -91 73 -60 8 20 -220 521 -240 525 -11 3
-27 -23 -59 -90z m117 -129 c26 -59 47 -111 47 -118 0 -7 -35 -11 -110 -11
-60 0 -110 2 -110 4 0 5 89 206 102 230 13 24 17 19 71 -105z"/>
<path d="M3447 2093 c-31 -53 -227 -509 -223 -520 12 -30 41 -6 73 60 l33 67
137 0 138 -1 32 -70 c25 -53 37 -70 50 -67 10 2 19 10 20 18 2 8 -48 128 -110
265 -105 230 -133 277 -150 248z m82 -222 c28 -63 51 -116 51 -118 0 -2 -49
-3 -110 -3 -87 0 -110 3 -110 14 0 7 16 49 36 92 20 44 42 94 50 113 9 21 18
31 23 25 5 -5 32 -60 60 -123z"/>
<path d="M4425 2087 c-3 -7 -4 -127 -3 -267 3 -240 4 -255 22 -258 10 -2 22 2
27 10 10 15 12 471 3 506 -7 24 -41 31 -49 9z"/>
<path d="M5642 2082 c-97 -35 -137 -102 -110 -185 18 -57 71 -83 196 -97 52
-6 106 -17 122 -25 75 -39 39 -131 -61 -155 -93 -22 -186 4 -211 60 -16 36
-58 43 -58 10 0 -31 26 -75 54 -94 41 -26 142 -48 189 -41 110 18 168 67 174
147 7 101 -30 130 -193 151 -61 8 -120 21 -133 28 -27 17 -37 53 -25 87 31 87
244 91 283 5 11 -24 46 -31 54 -10 2 6 -4 28 -14 48 -36 72 -167 106 -267 71z"/>
<path d="M9920 2088 c-100 -18 -178 -114 -187 -232 -17 -212 161 -357 334
-270 53 26 95 76 86 101 -8 21 -28 15 -67 -22 -72 -68 -161 -69 -232 -3 -140
129 -65 379 112 378 43 0 111 -28 133 -53 17 -21 40 -22 48 -1 7 19 -30 60
-77 84 -46 23 -94 29 -150 18z"/>
<path d="M11103 2088 c-26 -41 -223 -494 -221 -507 2 -9 11 -17 21 -19 13 -3
25 13 49 67 l31 71 139 0 138 0 31 -70 c22 -48 37 -70 49 -70 10 0 20 7 23 14
6 14 -201 484 -224 513 -14 16 -26 17 -36 1z m76 -203 c28 -63 51 -120 51
-125 0 -6 -44 -10 -111 -10 -98 0 -110 2 -105 16 25 66 102 234 107 234 4 0
30 -52 58 -115z"/>
<path d="M1522 2081 c-8 -5 -12 -17 -10 -27 3 -17 17 -19 156 -24 l153 -5
-166 -214 c-91 -117 -164 -219 -162 -225 5 -16 398 -21 408 -5 21 34 -1 39
-162 39 -87 0 -159 3 -159 8 0 4 68 93 151 197 195 245 188 234 164 251 -14
11 -60 14 -189 14 -94 0 -177 -4 -184 -9z"/>
<path d="M2795 2074 c-43 -22 -93 -73 -118 -119 -31 -57 -31 -202 0 -260 65
-123 186 -166 302 -109 77 39 92 69 89 174 l-3 85 -94 3 c-95 3 -116 -4 -104
-35 4 -9 26 -13 79 -13 l74 0 0 -59 c0 -54 -3 -62 -30 -85 -74 -61 -161 -55
-228 18 -67 73 -80 165 -36 255 47 94 148 135 230 93 22 -11 46 -28 53 -36 34
-40 61 -1 29 40 -46 58 -175 84 -243 48z"/>
<path d="M3882 2081 c-8 -5 -12 -17 -10 -27 3 -17 17 -19 154 -24 l151 -5
-164 -213 c-102 -132 -163 -218 -159 -227 4 -13 39 -15 206 -15 l200 0 0 25 0
25 -165 2 -165 3 165 208 c91 115 165 217 165 227 0 10 -7 21 -16 24 -24 9
-347 7 -362 -3z"/>
<path d="M4783 2070 c-121 -62 -173 -231 -114 -368 53 -120 185 -175 296 -123
69 32 98 72 103 141 2 32 1 75 -2 95 l-7 36 -97 -3 c-92 -3 -97 -4 -100 -25
-3 -22 0 -23 72 -23 l76 0 0 -65 c0 -64 -1 -65 -37 -89 -84 -55 -177 -35 -238
52 -25 36 -30 55 -33 116 -5 102 28 165 110 207 65 33 124 24 180 -29 16 -15
33 -22 43 -18 28 10 13 48 -33 80 -58 41 -156 48 -219 16z"/>
<path d="M6046 2075 c-8 -9 -13 -22 -10 -30 5 -12 26 -15 95 -15 l89 0 2 -232
c3 -219 4 -233 22 -236 10 -2 22 2 27 10 5 7 6 113 2 235 l-6 222 94 3 c83 3
94 5 97 22 2 10 -2 22 -10 27 -7 5 -97 9 -200 9 -154 0 -189 -3 -202 -15z"/>
<path d="M6617 2083 c-4 -3 -7 -77 -7 -163 0 -112 4 -171 16 -209 57 -192 323
-202 394 -15 18 50 20 74 18 223 -3 161 -4 166 -24 169 -22 3 -22 0 -26 -170
-3 -143 -7 -180 -22 -211 -26 -52 -69 -80 -130 -84 -65 -5 -113 19 -143 73
-21 36 -23 52 -23 201 0 89 -3 168 -6 177 -6 16 -35 22 -47 9z"/>
<path d="M8366 2074 c-3 -9 -6 -121 -6 -249 0 -128 3 -240 6 -249 10 -25 43
-19 50 9 3 14 5 108 3 210 -2 101 -1 181 2 177 4 -4 66 -96 138 -205 73 -109
139 -201 147 -204 8 -3 21 0 29 7 13 11 15 50 13 264 -3 251 -3 251 -25 254
-33 5 -37 -25 -30 -241 l6 -190 -145 217 c-143 214 -171 244 -188 200z"/>
<path d="M8901 2076 c-6 -7 -9 -21 -5 -30 5 -13 22 -16 95 -16 l89 0 2 -232 3
-233 23 -3 22 -3 0 235 0 235 92 3 c82 3 93 5 96 22 2 10 -2 22 -10 27 -7 5
-99 9 -204 9 -150 0 -194 -3 -203 -14z"/>
<path d="M10352 1828 c3 -255 4 -263 23 -263 19 0 20 8 23 113 l3 112 134 0
134 0 3 -112 c3 -105 4 -113 23 -113 19 0 20 7 20 260 l0 260 -22 3 c-23 3
-23 2 -23 -122 l0 -126 -135 0 -134 0 -3 123 c-3 118 -4 122 -26 125 l-22 3 2
-263z"/>
<path d="M11542 2082 c-9 -6 -12 -66 -10 -263 3 -246 4 -254 23 -254 18 0 20
8 23 78 l3 77 83 0 c46 0 98 5 117 11 71 24 109 82 109 168 0 82 -30 135 -95
168 -33 18 -232 30 -253 15z m259 -91 c34 -34 39 -44 39 -85 0 -100 -48 -136
-179 -136 l-81 0 0 130 0 130 91 0 91 0 39 -39z"/>
<path d="M12001 2076 c-6 -7 -9 -21 -5 -30 5 -13 22 -16 95 -16 l89 0 2 -232
3 -233 23 -3 22 -3 0 235 0 235 92 3 c82 3 93 5 96 22 2 10 -2 22 -10 27 -7 5
-99 9 -204 9 -150 0 -194 -3 -203 -14z"/>
<path d="M13137 2078 c-16 -12 -17 -37 -15 -263 3 -242 4 -250 23 -250 18 0
20 8 25 90 l5 90 70 2 70 3 78 -95 c76 -94 99 -110 111 -79 4 11 -13 41 -54
90 -58 70 -67 94 -35 94 7 0 29 15 48 33 27 25 37 44 42 81 16 102 -38 184
-133 205 -72 15 -214 14 -235 -1z m261 -68 c72 -44 77 -149 9 -190 -26 -16
-51 -20 -134 -20 l-103 0 0 115 0 115 98 0 c80 0 103 -4 130 -20z"/>
<path d="M7226 2065 c-3 -9 -6 -117 -6 -239 0 -166 3 -227 13 -240 11 -16 27
-17 139 -14 124 3 127 4 165 34 21 17 49 53 63 80 21 41 25 62 25 139 0 77 -4
98 -25 139 -14 27 -42 63 -63 80 -38 31 -40 31 -172 34 -116 3 -133 1 -139
-13z m289 -78 c86 -86 88 -231 5 -321 l-39 -41 -100 -3 -101 -4 0 206 0 206
96 0 97 0 42 -43z"/>
<path d="M7824 2067 c-2 -7 -3 -120 -2 -252 l3 -240 175 0 c168 0 175 1 175
20 0 19 -8 20 -152 23 l-153 3 0 89 0 90 146 0 c145 0 145 0 142 23 -3 21 -6
22 -145 25 l-143 3 0 89 0 90 144 0 c113 0 146 3 156 15 25 30 0 35 -171 35
-128 0 -171 -3 -175 -13z"/>
<path d="M12574 2067 c-2 -7 -3 -120 -2 -252 l3 -240 178 -3 178 -2 -3 22 c-3
23 -5 23 -155 26 l-153 3 0 89 0 90 144 0 c80 0 147 4 150 9 4 5 3 16 0 25 -5
14 -28 16 -150 16 l-144 0 0 90 0 89 153 3 c149 3 152 3 155 26 l3 22 -176 0
c-133 0 -177 -3 -181 -13z"/>
</g>
</svg>
