<?xml version="1.0" encoding="utf-8"?>
<!-- Generator: Adobe Illustrator 26.0.1, SVG Export Plug-In . SVG Version: 6.00 Build 0)  -->
<svg version="1.1" id="Layer_2" xmlns="http://www.w3.org/2000/svg" xmlns:xlink="http://www.w3.org/1999/xlink" x="0px" y="0px"
	 viewBox="0 0 1366 768" style="enable-background:new 0 0 1366 768;" xml:space="preserve">
<style type="text/css">
	.st0{fill:#006699;}
</style>
<g>
	<path class="st0" d="M690.84,338.94c-21.4,4.28-41.44,8.16-61.41,12.42c-3.66,0.78-5.63-0.2-7.88-2.77
		c-13.58-15.53-27.66-30.64-40.79-46.54c-6.83-8.28-15.43-9.98-24.99-10.39c-1.15-0.05-2.42,0.67-3.48,1.29
		c-8.58,5.03-17.13,10.11-25.67,15.22c-4.91,2.94-8.82,6.69-11.13,12.19c-0.6,1.43-3.74,3.11-5.08,2.68
		c-3.9-1.25-4.36,1.65-5.45,3.67c-1.21,2.26-2.96,4.37,0.06,7.13c5.49,5.01,3.62,14.4-3.34,16.57c-6.59,2.05-13.45,3.24-20.59,4.06
		c4.05-10.2,4.25-21.07,11.38-29.59c2.85-3.39,4.33-8.4,5.12-12.9c0.74-4.19,2.72-6,6.22-7.85c10.84-5.73,21.48-11.84,32.06-18.04
		c2.61-1.53,4.87-3.77,6.98-5.99c10.33-10.81,25.84-12.87,38.85-5.23c11.65,6.84,23.41,13.48,35.77,20.57
		c0.75-3.24,1.28-5.26,1.68-7.3c2.11-10.63,6.83-19.66,15.24-26.81c3.1-2.64,5.89-6.03,7.81-9.62c9.11-17.01,15.89-34.85,18.3-54.16
		c0.27-2.19,1.12-4.55,2.38-6.35c5.27-7.53,6.78-17.42,3.82-26.53c-1.18,4.8-2.13,9.93-3.71,14.87
		c-2.95,9.26-13.17,17.39-22.73,15.89c-1.06-0.17-2.45,0.31-3.36,0.96c-6.64,4.68-13.35,9.28-19.7,14.34
		c-2.51,2-4.61,4.87-6.08,7.76c-1.75,3.43-7.45,6.99-10.98,5.79c-0.53-0.18-0.67-1.51-0.99-2.31c-5.68,2.44-9.63,0.81-12.93-4.91
		c-4.11-7.13-4.01-12.96,1.2-20.23c8.71-12.16,17.63-24.8,22.95-38.59c5.26-13.63,14.68-23.09,23.96-34.07
		c-2.25,0.97-4.03,1.73-6.77,2.9c-1.9-5.74-3.69-11.16-5.82-17.57c8.07,3.91,10.81,13.5,20.4,13c-0.47-7.3-0.91-14.06-1.35-20.82
		c0.53-0.23,1.07-0.46,1.6-0.69c2.86,4.59,5.9,9.07,8.55,13.78c4.64,8.22,5.9,8.09,14.36,4.48c5.97-2.55,12.84-3.83,19.36-4.09
		c18.2-0.73,41.06,5.54,57.45,15.24c-10.83-1.99-20.17-3.71-29.51-5.43c19.73,10.73,42.55,15.41,59.36,31.73
		c-11.33-4.5-22.8-6.99-36.58-4.1c22.42,6.3,38.6,18.2,48.58,39.25c-5.58-3.96-10.01-7.84-15.08-10.51
		c-5.14-2.72-10.9-4.25-16.96-5.51c18.22,13.07,27.9,30.44,29.23,52.62c-5.63-8.64-11.75-16.7-21.02-21.96
		c3.46,7.25,7.25,14.11,10.06,21.35c2.92,7.54,2.62,15.36-0.06,22.78c-4.13-5.85-8.01-11.55-12.14-17.06
		c-0.98-1.31-2.81-1.99-4.45-3.1c3.71,16.98,7.31,33.45,11.08,50.67c-3.99-4.39-7.72-8.49-12.4-13.65
		c0.45,12.41,2.6,23.01,7.26,33.03c12.23,26.31,31.87,46.11,56.19,61.06c21.56,13.25,39.9,29.23,52.38,51.51
		c0.95,1.69,3.22,2.75,5.03,3.84c13.95,8.36,28.38,16,41.83,25.1c23.78,16.08,35.14,39.49,35.67,67.81
		c0.25,13.33-1.14,26.73-2.52,40.03c-1.52,14.73,0.65,28.47,8.28,41.25c4.75,7.96,11.54,13.66,19.68,17.99
		c-11.68-1.93-20.6-8.71-29.76-17.34c4.68,18.24,14.67,31.33,28.06,42.25c-13.88-5.14-26.25-12.64-36.46-23.38
		c-10.31-10.84-15.58-24.07-17.52-38.86c-4.69,11.75-3.16,23.47-0.33,35.32c-7.22-9.31-11.78-19.82-13.82-31.32
		c-3.17-17.9-0.83-35.63,1.47-53.47c1.61-12.47,1.43-25.18,1.86-37.78c0.07-2.06-0.83-4.15-1.7-6.24
		c-2,13.57-3.96,27.05-10.99,39.25c2.51-14.82,3.01-29.53-0.11-44.28c-3.2-15.13-10.21-27.89-22.74-38.62
		c4.5,27.28-3.08,50.43-18.64,71.23c-3.52,4.7-4.46,9.21-2.02,14.03c5.38,10.59,10.82,21.2,17.1,31.26
		c3.18,5.09,5.01,8.97,2.75,15.3c-7.33,20.56-13.75,41.45-20.49,62.22c-0.44,1.37-0.78,2.81-0.88,4.24
		c-0.61,8.56-1.92,16.04-13.04,17.14c-4.31,0.43-7.44,4.12-6.33,9.66c0.51,2.56,0.09,5.31,0.09,8.33c-10.34,0-20.03,0-30.82,0
		c6.04-8.87,7.15-20.04,18.88-24.27c7.9-2.85,13.37-9.24,15.91-17.51c3.61-11.73,7.63-23.39,10.35-35.33
		c2.76-12.12,0.31-23.83-6.94-34.12c-4.06-5.76-8.75-11.07-13.04-16.67c-9.9-12.91-19.59-25.98-29.62-38.79
		c-9.96-12.73-11.27-26.91-6.55-41.61c2.97-9.24,7.55-17.96,11.47-26.89c1.36-3.1,2.91-6.12,4.05-9.59
		c-11.71,12.73-26.46,16.39-42.7,14.33c-8.91-1.13-17.84-3.17-26.39-5.95c-29.88-9.72-54.85-27.4-77.02-49.26
		c-1.33-1.31-1.83-4.62-1.23-6.53c4.41-13.97,12.89-24.93,25.38-32.72C686.08,341.95,687.87,340.81,690.84,338.94z M686.32,127.6
		c0.47,0.42,0.89,0.91,1.41,1.25c22.11,14.31,35.29,35.16,41.94,59.99c5.41,20.22,9.18,40.88,13.67,61.34
		c0.85-10.77,1.27-21.71,0.76-32.61c-1.08-23.38-6.52-45.5-21.19-64.42C713.43,140.92,701.62,131.77,686.32,127.6z M625.07,159.47
		c4.9-1.01,9.39-1.85,10.04-7.56C629.12,150.56,626.32,153.67,625.07,159.47z M588.45,211.58c0.67,0.16,1.33,0.33,2,0.49
		c4.66-3.47,4.81-4.52,0.07-9.51C589.7,206.15,589.08,208.86,588.45,211.58z"/>
	<path class="st0" d="M776.77,637.96c-5.81,1.94-11.5,2.24-14.31,5.23c-2.7,2.88-2.42,8.54-3.55,13.44c-8.72,0-17.88,0-28.35,0
		c5.78-7.92,6.64-18.15,17.41-21.88c8.45-2.93,15.18-8.24,19.37-16.92c5.02-10.4,11.28-20.19,16.97-30.27
		c7.65-13.55,6.88-26.98-0.85-40.18c-10.87-18.57-21.65-37.21-32.84-55.59c-7.16-11.76-4.07-23.52-1.73-35.95
		c7.52,3.34,14.49,6.29,21.29,9.59c1.29,0.63,2.46,2.54,2.74,4.04c4.4,23.77,17.12,42.67,34.09,59.19c1.48,1.44,2.8,3.32,3.47,5.25
		c2.74,7.84,4.95,15.88,7.88,23.64c1.51,4.01,1.2,6.92-1.47,10.36C799.9,589.73,786.99,613.92,776.77,637.96z"/>
	<path class="st0" d="M568.97,383.53c3.36-1.22,4.98-1.93,6.68-2.4c5.04-1.4,10.78,3.05,10.25,8.2c-0.78,7.44-1.94,14.85-3.69,22.44
		c-6.71-7.2-16.46-10.79-19.55-21.2c-1.32-4.44-4.75-8.59-8.12-11.98c-3.23-3.24-3.43-6.42-3.42-10.6
		c0.04-15.49-0.09-31.01-0.99-46.46c-0.51-8.8,8.03-20.68,16.72-20.75c2.23-0.02,5.18,1.29,6.59,2.99
		c9.11,10.96,17.88,22.21,25.99,34.39c-3.93-2.57-7.82-5.2-11.79-7.71c-4.58-2.9-9.1-5.92-13.86-8.49c-5.19-2.8-7.55-1.38-7.51,4.37
		c0.08,12.29,0.29,24.59,0.64,36.88c0.05,1.89,1.24,3.73,1.64,5.64c0.34,1.66,0.38,3.4,0.42,5.1
		C569.02,376.85,568.97,379.76,568.97,383.53z"/>
</g>
</svg>
