<?xml version="1.0" encoding="UTF-8"?>
<svg version="1.1" xmlns="http://www.w3.org/2000/svg" width="1366" height="768">
<path d="M0 0 C4.26108789 1.48046706 5.86535553 4.48635056 7.9375 8.25 C8.28232422 8.86391602 8.62714844 9.47783203 8.98242188 10.11035156 C17 24.8492078 17 24.8492078 17 32 C17.66 32 18.32 32 19 32 C19.14695312 31.16597656 19.29390625 30.33195312 19.4453125 29.47265625 C21.29456101 20.19453013 23.92024557 12.49554147 32 7 C34.65012466 5.80316951 35.65961084 5.88653695 38.4375 6.8125 C44.40262153 11.90467692 47.15218938 20.34615416 48 28 C47.9484375 29.08539063 47.896875 30.17078125 47.84375 31.2890625 C47.58034201 37.8427276 47.58034201 37.8427276 50.25146484 43.65478516 C56.04416542 49.48705091 62.5685094 53.40000625 70.57421875 55.234375 C91.63254024 61.88080175 105.03042347 92.68340312 115.42675781 110.33837891 C116.51567811 112.18062116 117.61187638 114.01857369 118.71386719 115.85302734 C120.42765864 118.7063129 122.12188967 121.57043274 123.8125 124.4375 C124.34673584 125.31954102 124.88097168 126.20158203 125.43139648 127.11035156 C126.15564819 128.35316895 126.15564819 128.35316895 126.89453125 129.62109375 C127.32612549 130.3473999 127.75771973 131.07370605 128.20239258 131.82202148 C129.24052445 134.65678563 128.92043782 136.14664276 128 139 C126.82348633 141.01025391 126.82348633 141.01025391 125.33203125 142.9765625 C124.77580078 143.71970703 124.21957031 144.46285156 123.64648438 145.22851562 C123.04126953 146.01935547 122.43605469 146.81019531 121.8125 147.625 C120.52711431 149.33576513 119.24196453 151.04670754 117.95703125 152.7578125 C116.96823975 154.06540527 116.96823975 154.06540527 115.95947266 155.39941406 C112.93906553 159.40805805 109.97072666 163.45448626 107 167.5 C105.83361695 169.08354227 104.66694935 170.666875 103.5 172.25 C102.9225 173.03375 102.345 173.8175 101.75 174.625 C68.5 219.75 68.5 219.75 66.74780273 222.12768555 C65.58808226 223.70178862 64.42873615 225.27616757 63.26977539 226.85083008 C60.24993597 230.95279634 57.22259989 235.04892726 54.18359375 239.13671875 C53.55646484 239.98234375 52.92933594 240.82796875 52.28320312 241.69921875 C51.09292557 243.30388924 49.90038408 244.90688411 48.70507812 246.5078125 C45.57284857 250.73613663 42.69499519 255.00060715 40.06274414 259.55981445 C39.71203857 260.03507568 39.36133301 260.51033691 39 261 C38.34 261 37.68 261 37 261 C36.67 262.32 36.34 263.64 36 265 C35.34 265 34.68 265 34 265 C33.67 266.32 33.34 267.64 33 269 C32.34 269 31.68 269 31 269 C30.7321167 269.73573242 30.4642334 270.47146484 30.18823242 271.22949219 C29.02874958 273.93296687 27.74159259 275.97761939 25.98828125 278.328125 C25.39466797 279.12863281 24.80105469 279.92914063 24.18945312 280.75390625 C23.57005859 281.57761719 22.95066406 282.40132813 22.3125 283.25 C21.71244141 284.05824219 21.11238281 284.86648438 20.49414062 285.69921875 C16.40378189 291.19110749 12.22366386 296.61015495 8 302 C42.01227373 308.80981671 76.09265285 315.24386057 110.1875 321.625 C111.84394028 321.93502079 111.84394028 321.93502079 113.53384399 322.25130463 C127.3552277 324.8377829 141.17729923 327.42057007 155 330 C154.33797388 333.54889372 153.48068846 336.40568574 151.84765625 339.6328125 C151.40671631 340.51026123 150.96577637 341.38770996 150.51147461 342.29174805 C150.03331299 343.22672119 149.55515137 344.16169434 149.0625 345.125 C148.56306885 346.11218018 148.0636377 347.09936035 147.54907227 348.11645508 C144.18271859 354.7473133 140.74481428 361.33875055 137.25952148 367.90771484 C132.80696689 376.31686059 128.4698984 384.7849201 124.125 393.25 C119.09059833 403.05650915 114.05027253 412.85903001 108.9375 422.625 C104.12771917 431.81343285 99.37060141 441.02831998 94.625 450.25 C89.15376002 460.87910319 83.68087126 471.50731362 78.1875 482.125 C77.61918457 483.22618164 77.05086914 484.32736328 76.46533203 485.46191406 C73.74828023 490.70812328 70.9833338 495.90016062 68 501 C63.64274138 499.41648321 61.17713644 496.02057775 58.3125 492.5625 C57.78140625 491.93214844 57.2503125 491.30179688 56.703125 490.65234375 C52.86912295 486.08849553 49.10033173 481.47142314 45.34375 476.84375 C42.60696974 473.52312328 39.80859209 470.25987065 37 467 C33.24101127 462.62856823 29.49711712 458.24692792 25.8125 453.8125 C25.09707031 452.95269531 24.38164062 452.09289062 23.64453125 451.20703125 C22 449 22 449 21 446 C19.948125 445.90460938 18.89625 445.80921875 17.8125 445.7109375 C11.73104278 444.94143613 5.8961113 443.26119182 0 441.625 C-1.25659424 441.27630859 -2.51318848 440.92761719 -3.80786133 440.56835938 C-24.9651403 434.60950705 -46.28196003 427.78871962 -66 418 C-66.70044434 417.65791504 -67.40088867 417.31583008 -68.12255859 416.96337891 C-87.60967266 407.36668764 -106.76360623 394.3929924 -121.52832031 378.33813477 C-125.95216959 373.59930026 -130.39482187 370.89227835 -136.25 368.1875 C-138.01524348 367.33915243 -139.77954183 366.4888359 -141.54296875 365.63671875 C-142.8894751 364.99162354 -142.8894751 364.99162354 -144.26318359 364.33349609 C-148.74561692 362.14945945 -153.15454396 359.8298343 -157.5625 357.5 C-158.36526367 357.07871826 -159.16802734 356.65743652 -159.99511719 356.22338867 C-163.10540969 354.58184541 -166.06899582 352.95400279 -169 351 C-175.03682259 350.58181868 -180.39741514 351.93136568 -185.3125 355.44921875 C-196.36790224 365.60892868 -193.97263283 390.58117751 -194.59716797 404.35400391 C-195.40486825 425.27421532 -194.25963553 444.636999 -181 462 C-180.37609375 462.84175781 -179.7521875 463.68351562 -179.109375 464.55078125 C-176.97246402 467.03197233 -175.09509643 468.48823781 -172.3125 470.1875 C-171.35085937 470.78175781 -170.38921875 471.37601563 -169.3984375 471.98828125 C-166.89473593 473.47035747 -164.38332853 474.9230374 -161.8515625 476.35546875 C-139.32858448 489.162308 -139.32858448 489.162308 -135 499 C-134.10864452 505.14466329 -134.45125723 510.719188 -137.6015625 516.1484375 C-142.54746672 522.6969252 -147.89053451 526.00032197 -155.875 527.5625 C-160.83390514 526.66989708 -163.46489946 523.4397184 -167 520 C-176.76676803 510.68163452 -186.49878461 502.06504487 -199.1484375 496.8671875 C-211.35481656 491.15027579 -218.44092581 471.53480368 -222.87011719 459.66894531 C-226.73364533 448.47586314 -228.06749496 437.92913641 -227.9296875 426.109375 C-227.88145358 415.15461949 -228.62993127 404.24115278 -229.3125 393.3125 C-229.44706145 391.09562417 -229.58158244 388.87874588 -229.71606445 386.66186523 C-230.49267091 374.05400777 -231.40733479 361.46536817 -232.48883057 348.88018799 C-236.12396366 306.47253547 -236.12396366 306.47253547 -225.7109375 291.91015625 C-221.36093164 287.05364285 -216.10088976 284.41761982 -209.66015625 283.76171875 C-191.14194818 283.23262709 -171.80873841 294.10852422 -156.375 303.5 C-144.63242018 310.60122462 -130.91106856 314.52273394 -118 319 C-117.85844482 317.91750977 -117.71688965 316.83501953 -117.57104492 315.71972656 C-113.94486185 292.0991514 -92.96303606 271.87291733 -75 258 C-74.02160156 257.23171875 -73.04320312 256.4634375 -72.03515625 255.671875 C-63.85705964 249.44511028 -55.05934053 244.69951296 -45.98583984 239.90307617 C-20.82259196 226.48095931 4.68417486 205.17635756 13.37109375 176.8984375 C14.59556541 171.25522031 14.22631049 166.98746872 11.1875 162.0625 C7.67001772 158.74601671 6.25827301 158 1.3125 158 C-6.20990917 159.22587409 -11.48938515 164.3441677 -16.5625 169.6875 C-23.11591902 176.46886402 -30.1075046 177.88730086 -39.4465332 178.06591797 C-40.63593506 178.04158691 -41.82533691 178.01725586 -43.05078125 177.9921875 C-44.39435409 177.97199962 -45.73794256 177.95283131 -47.08154297 177.93457031 C-47.77326599 177.92413696 -48.46498901 177.91370361 -49.17767334 177.9029541 C-76.9758241 177.03541052 -76.9758241 177.03541052 -101 189 C-101.804375 190.010625 -102.60875 191.02125 -103.4375 192.0625 C-106.98796412 196.13254424 -109.93199158 197.68184486 -115.25 198.5 C-125.84026734 197.08796435 -133.51731925 190.14249756 -140 182 C-146.12669136 171.01793956 -147.7544706 159.47658973 -144.375 147.375 C-141.32842673 138.30984666 -136.33336291 131.80937582 -128 127 C-125.33947788 125.86446128 -122.66401686 124.90864102 -119.921875 123.98828125 C-94.12259427 115.26205395 -72.34529956 97.77210453 -52.625 79.4140625 C-50.58144568 77.53472236 -48.51252336 75.72067159 -46.40625 73.9140625 C-41.41439629 69.55789748 -36.70138737 64.92332297 -32.00927734 60.24951172 C-30.50932869 58.75926833 -28.99900842 57.28008608 -27.48828125 55.80078125 C-16.03412248 44.48959827 -9.80489561 34.38687484 -5.5625 19 C-5.12769729 17.48508828 -4.69085916 15.97075923 -4.25195312 14.45703125 C-3.45684298 11.70650345 -2.67376064 8.95318827 -1.90454102 6.1953125 C-1.31606816 4.11651823 -0.68320465 2.04961395 0 0 Z " fill="#0073AE" transform="translate(300,61)"/>
<path d="M0 0 C1.35642613 2.71285225 0.65217663 3.76810733 -0.25 6.625 C-0.50265625 7.44226563 -0.7553125 8.25953125 -1.015625 9.1015625 C-1.73978795 11.23382008 -2.51689576 13.34827858 -3.32299805 15.45092773 C-5.33488573 20.8031062 -7.0689224 26.24050526 -8.81640625 31.68359375 C-9.18457962 32.82567291 -9.55275299 33.96775208 -9.93208313 35.1444397 C-10.93467656 38.25690967 -11.93539054 41.3699751 -12.93495941 44.48341751 C-13.56817612 46.45517472 -14.20210859 48.42670049 -14.83624268 50.39816284 C-21.64723231 71.57552008 -28.37447337 92.77872169 -35.05981445 113.99609375 C-40.63544878 131.69070687 -46.23577191 149.37731919 -51.85748291 167.05734253 C-52.77326048 169.93745716 -53.68841905 172.81776717 -54.60296631 175.69827271 C-59.30253398 190.49893394 -64.0181118 205.291389 -69 220 C-67.71528809 220.14381104 -66.43057617 220.28762207 -65.10693359 220.43579102 C-64.34145203 220.52160431 -63.57597046 220.6074176 -62.78729248 220.6958313 C-61.18864093 220.87450465 -59.58974603 221.05100375 -57.99072266 221.22631836 C-52.22222222 221.88888889 -52.22222222 221.88888889 -50 223 C-49.78961524 250.84236912 -49.63098009 278.68461885 -49.53369045 306.52762318 C-49.48731327 319.45610462 -49.42410174 332.38409173 -49.32104492 345.31225586 C-49.23124725 356.58248772 -49.17325397 367.85236153 -49.15320355 379.1229412 C-49.14148567 385.0890271 -49.11401214 391.05408883 -49.04842949 397.01984596 C-48.98714792 402.64011217 -48.96853429 408.25893657 -48.98203087 413.87950516 C-48.97956339 415.93742533 -48.96177318 417.99539581 -48.92715073 420.0530262 C-48.64791902 437.51040953 -48.64791902 437.51040953 -54.36463928 444.57719421 C-55.87574394 446.0863089 -57.41787849 447.56551194 -59 449 C-60.08102864 450.23401108 -61.1482944 451.48056785 -62.1875 452.75 C-63.12401682 453.83418338 -64.06150729 454.91752654 -65 456 C-68.55575301 460.1235919 -72.06796285 464.27212815 -75.5 468.5 C-78.93208013 472.7279248 -82.44551171 476.8752789 -86 481 C-90.32172863 486.01591689 -94.55479196 491.09175299 -98.73046875 496.23046875 C-103.54688939 502.10799411 -108.494943 507.87611914 -113.41601562 513.66601562 C-118.1351961 519.22068034 -122.84075049 524.78059925 -127.4375 530.4375 C-131.39443418 535.30049424 -135.46435942 540.05700203 -139.55615234 544.80615234 C-143.35163367 549.22031766 -147.05277913 553.70333198 -150.72265625 558.22265625 C-153.74419944 561.90759143 -156.83035951 565.53568321 -159.91650391 569.16650391 C-162.79557843 572.55973475 -165.63211492 575.9827672 -168.4375 579.4375 C-172.39508188 584.30129025 -176.46542446 589.05881231 -180.55834961 593.80834961 C-183.58945289 597.33298919 -186.56985316 600.89039882 -189.5 604.5 C-193.4337857 609.34596789 -197.48447759 614.08098528 -201.55859375 618.80859375 C-204.58958284 622.33317903 -207.56992581 625.89048832 -210.5 629.5 C-213.93208498 633.72793077 -217.44565213 637.87515314 -221 642 C-225.24532676 646.93033497 -229.42062447 651.90684139 -233.5234375 656.95703125 C-236.66593166 660.81823465 -239.83298572 664.65890253 -243 668.5 C-248.34731003 674.98864448 -253.6825596 681.48683888 -259 688 C-259.33 687.34 -259.66 686.68 -260 686 C-259.01879883 683.64355469 -259.01879883 683.64355469 -257.45703125 680.671875 C-256.8842041 679.57391602 -256.31137695 678.47595703 -255.72119141 677.34472656 C-255.08521185 676.14635118 -254.44897468 674.94811249 -253.8125 673.75 C-253.16273221 672.51296647 -252.51348618 671.27565874 -251.86474609 670.03808594 C-247.5624877 661.85308728 -243.14666553 653.73166037 -238.68286133 645.63378906 C-233.94391241 636.99432663 -229.45268497 628.23249839 -224.95651245 619.465271 C-220.80489166 611.37433996 -216.5938113 603.33118462 -212.1875 595.375 C-206.29553462 584.72667151 -200.78293357 573.89021874 -195.25061035 563.05245972 C-189.98052739 552.73311094 -184.61611183 542.48632736 -179.00390625 532.34765625 C-175.85338069 526.63399125 -172.88348584 520.85261978 -170 515 C-166.67903369 508.25942481 -163.20138997 501.63667855 -159.5625 495.0625 C-153.9565211 484.91883729 -148.65217652 474.62957452 -143.375 464.3125 C-142.95935791 463.49997772 -142.54371582 462.68745544 -142.11547852 461.85031128 C-141.2884753 460.23346832 -140.46147934 458.61662166 -139.63449097 456.99977112 C-139.03617966 455.8300602 -139.03617966 455.8300602 -138.42578125 454.63671875 C-138.03359406 453.86984238 -137.64140686 453.102966 -137.23733521 452.31285095 C-133.28916413 444.59902267 -129.25551676 436.9320382 -125.19970703 429.27441406 C-122.78256247 424.69197232 -120.39362058 420.09475902 -118 415.5 C-113.94674653 407.72232618 -109.87733926 399.95353474 -105.78466797 392.1965332 C-103.55387809 387.96476289 -101.33580499 383.7267846 -99.1328125 379.48046875 C-93.62099374 368.86147586 -88.01011357 358.31048649 -82.24560547 347.82641602 C-77.95215784 339.98611394 -73.91410565 332.03542866 -70 324 C-75.37917854 322.59274654 -80.70608807 321.46367209 -86.19628906 320.59887695 C-86.97612278 320.47315434 -87.7559565 320.34743172 -88.55942154 320.21789932 C-91.12763658 319.80471204 -93.69661096 319.3964687 -96.265625 318.98828125 C-98.08675831 318.69633723 -99.90784296 318.40408953 -101.72888184 318.11155701 C-106.57166318 317.33448889 -111.4151159 316.5616848 -116.25871277 315.78971863 C-121.24092178 314.99487589 -126.22247328 314.19593372 -131.20410156 313.39746094 C-147.51968542 310.78364167 -163.83722882 308.18211437 -180.15625 305.58984375 C-181.20045105 305.42394241 -182.2446521 305.25804108 -183.32049561 305.08711243 C-187.81384427 304.37359208 -192.30745113 303.66180754 -196.80175781 302.9543457 C-204.5528052 301.73148139 -212.2893029 300.46013743 -220 299 C-218.67853252 295.30274608 -217.06692831 292.50136253 -214.65625 289.41015625 C-213.66032837 288.12129517 -213.66032837 288.12129517 -212.64428711 286.80639648 C-211.93667236 285.90091064 -211.22905762 284.9954248 -210.5 284.0625 C-209.03094342 282.16009531 -207.56349263 280.25644952 -206.09765625 278.3515625 C-205.38754395 277.42891602 -204.67743164 276.50626953 -203.94580078 275.55566406 C-201.54036263 272.39630063 -199.21903304 269.18695615 -196.9375 265.9375 C-192.97959366 260.31558878 -188.88522829 254.80518925 -184.75 249.3125 C-178.01848501 240.37104152 -171.36054298 231.37824256 -164.73388672 222.35888672 C-161.24259462 217.60911705 -157.74376621 212.86489345 -154.24536133 208.12036133 C-151.34850075 204.19078065 -148.4553213 200.2586046 -145.5703125 196.3203125 C-139.37896728 187.87796854 -133.11512395 179.49980514 -126.75 171.1875 C-121.91466674 164.8726991 -117.15969728 158.52263229 -112.57617188 152.02294922 C-109.54190958 147.72863226 -106.41468163 143.51149222 -103.25 139.3125 C-97.03174994 131.06163061 -90.90202172 122.74739764 -84.78222656 114.42333984 C-81.27403913 109.65316608 -77.76017835 104.88716839 -74.24609375 100.12133789 C-71.34897833 96.19143953 -68.45556176 92.25893286 -65.5703125 88.3203125 C-59.37896505 79.87796551 -53.11498502 71.49991357 -46.75 63.1875 C-41.96732915 56.93950021 -37.25371278 50.66245939 -32.71679688 44.23388672 C-27.5492711 36.91751006 -22.19642524 29.73685059 -16.87158203 22.53466797 C-14.91995324 19.89159333 -12.97305036 17.24509311 -11.02734375 14.59765625 C-10.38442383 13.72326904 -9.74150391 12.84888184 -9.07910156 11.94799805 C-7.8370037 10.25846922 -6.59544969 8.56854042 -5.35449219 6.87817383 C-4.51966309 5.74351685 -4.51966309 5.74351685 -3.66796875 4.5859375 C-3.17578857 3.9161084 -2.6836084 3.2462793 -2.17651367 2.55615234 C-1 1 -1 1 0 0 Z " fill="#0073AE" transform="translate(532,64)"/>
<path d="M0 0 C0.77070375 0.00223072 1.5414075 0.00446144 2.33546591 0.00675976 C3.14824169 0.00519977 3.96101747 0.00363978 4.79842281 0.00203252 C7.54308834 -0.00198088 10.28769931 0.00121347 13.03236532 0.00434887 C14.99145684 0.00299498 16.9505481 0.00121512 18.90963888 -0.00096118 C24.24625978 -0.00553697 29.58286145 -0.00374536 34.91948271 -0.0005821 C40.49108703 0.00194076 46.06268965 -0.00039583 51.63429403 -0.00196826 C60.99273619 -0.00379018 70.35117046 -0.00138308 79.70961142 0.00337231 C90.54606508 0.00881497 101.38249993 0.00705233 112.21895313 0.00154591 C121.50468864 -0.0029846 130.79041846 -0.00363608 140.07615471 -0.00101542 C145.63009878 0.00054769 151.18403399 0.00074017 156.7379775 -0.00255191 C161.95813714 -0.00542972 167.1782724 -0.0034566 172.39842939 0.00234234 C174.3201781 0.00367043 176.24192883 0.00327501 178.16367674 0.00107968 C180.77541134 -0.00162994 183.38706653 0.00174697 185.99879599 0.00675976 C187.15485161 0.00341368 187.15485161 0.00341368 188.33426189 0 C193.5529811 0.01959356 193.5529811 0.01959356 194.66713095 1.13374341 C194.76560061 2.69373389 194.79511712 4.25814885 194.79652548 5.82124341 C194.79967764 6.81897778 194.8028298 7.81671216 194.80607748 8.84468091 C194.80304113 10.47276684 194.80304113 10.47276684 194.79994345 12.13374341 C194.80090017 13.23975903 194.8018569 14.34577466 194.80284262 15.48530591 C194.80352461 17.82905648 194.80166899 20.17280893 194.79750204 22.51655591 C194.79215408 26.11816128 194.79744641 29.71964194 194.8038497 33.32124341 C194.80318892 35.59207702 194.80190776 37.86291055 194.79994345 40.13374341 C194.80196768 41.21913403 194.80399191 42.30452466 194.80607748 43.42280591 C194.80134924 44.91940747 194.80134924 44.91940747 194.79652548 46.44624341 C194.79572989 47.32925122 194.79493429 48.21225903 194.79411459 49.12202466 C194.66713095 51.13374341 194.66713095 51.13374341 193.66713095 52.13374341 C192.03489639 52.22980205 190.39848705 52.25562161 188.76342916 52.25399792 C187.17109205 52.25605992 187.17109205 52.25605992 185.54658651 52.25816357 C183.78468985 52.25277066 183.78468985 52.25277066 181.98719931 52.2472688 C180.75810339 52.24741482 179.52900747 52.24756085 178.26266623 52.2477113 C174.88264423 52.24713233 171.50268266 52.24210304 168.12267137 52.23513734 C164.59391901 52.22890329 161.06516592 52.22829997 157.5364089 52.22711194 C150.84989976 52.22399877 144.16340689 52.21578559 137.47690493 52.20576245 C129.86638792 52.19460084 122.25587015 52.18909074 114.645347 52.18406701 C98.98593061 52.17360296 83.32653664 52.15525767 67.66713095 52.13374341 C67.66713095 69.62374341 67.66713095 87.11374341 67.66713095 105.13374341 C75.94549032 105.12214184 84.2238497 105.11054028 92.75306845 105.09858716 C98.64974773 105.09283103 104.54642491 105.08770423 110.44310522 105.08348954 C118.08972685 105.07793987 125.73633762 105.07088518 133.38295126 105.05830395 C140.08078432 105.04728902 146.77860319 105.04146569 153.47644567 105.03886616 C156.03701224 105.03701266 158.59757813 105.03339346 161.15813971 105.02801335 C164.73325401 105.02079751 168.30831917 105.0197527 171.88343954 105.02021801 C172.95158392 105.01662274 174.0197283 105.01302746 175.12024069 105.00932324 C176.09061773 105.0106979 177.06099478 105.01207257 178.06077719 105.01348889 C178.90698315 105.0125671 179.75318911 105.0116453 180.62503767 105.01069558 C182.66713095 105.13374341 182.66713095 105.13374341 184.66713095 106.13374341 C184.69239834 113.37860891 184.70996275 120.62346314 184.72206259 127.86836255 C184.72710451 130.33516374 184.73393785 132.80196193 184.7425704 135.26875317 C184.75464219 138.80578869 184.76036051 142.34278486 184.7647872 145.87983716 C184.76994848 146.99023861 184.77510977 148.10064007 184.78042746 149.24469006 C184.78050299 150.26567288 184.78057852 151.2866557 184.78065634 152.33857739 C184.78287695 153.2423663 184.78509756 154.14615521 184.78738546 155.07733166 C184.66713095 157.13374341 184.66713095 157.13374341 183.66713095 158.13374341 C182.17472575 158.2415807 180.67728445 158.28056487 179.1810317 158.29196179 C177.72752813 158.30664502 177.72752813 158.30664502 176.24466085 158.32162488 C175.1729212 158.32738034 174.10118155 158.3331358 172.99696493 158.33906567 C171.31425497 158.35391507 171.31425497 158.35391507 169.59755087 158.36906445 C165.86946401 158.40078899 162.14136438 158.42548002 158.4132247 158.45014966 C155.83632201 158.47070973 153.25942277 158.49170594 150.68252707 158.51312268 C144.58041169 158.56277933 138.47827804 158.60801918 132.37611347 158.65114504 C124.74977635 158.70531122 117.12349476 158.76618693 109.49720907 158.82710278 C95.88722561 158.93578433 82.2771918 159.03427631 68.66713095 159.13374341 C68.66713095 176.62374341 68.66713095 194.11374341 68.66713095 212.13374341 C109.91713095 212.46374341 151.16713095 212.79374341 193.66713095 213.13374341 C195.51195173 216.82338496 195.91828777 217.93061833 195.92592001 221.77876294 C195.93222433 222.69296002 195.93852865 223.6071571 195.94502401 224.54905713 C195.93895132 226.01796902 195.93895132 226.01796902 195.93275595 227.51655591 C195.9346694 228.52717083 195.93658285 229.53778576 195.93855429 230.57902539 C195.93991396 232.71233888 195.9362327 234.8456607 195.92787313 236.97895825 C195.91714846 240.25339712 195.92778734 243.5272901 195.94056845 246.80171216 C195.93924725 248.87332795 195.93668568 250.94494341 195.93275595 253.01655591 C195.93680441 253.99987896 195.94085287 254.98320202 195.94502401 255.99632275 C195.93556753 257.35816189 195.93556753 257.35816189 195.92592001 258.74751294 C195.92432882 259.54819195 195.92273764 260.34887097 195.92109823 261.17381299 C195.66713095 263.13374341 195.66713095 263.13374341 193.66713095 265.13374341 C191.03612824 265.32914671 188.51055488 265.39861387 185.87854147 265.38098156 C185.06491127 265.38339598 184.25128106 265.3858104 183.4129954 265.38829798 C180.67137373 265.39395897 177.92998259 265.38525387 175.18837118 265.37666333 C173.22913185 265.37773561 171.26989282 265.37967348 169.31065512 265.38241589 C163.97820071 265.38727571 158.64582959 265.37959464 153.31338525 265.36946285 C147.74445752 265.360702 142.17553255 265.3624394 136.60659933 265.36282361 C127.25412232 265.36188614 117.90167769 265.3531907 108.54921103 265.33955395 C97.72011911 265.32382298 86.89106268 265.31855596 76.06196016 265.31928951 C65.66408524 265.31989884 55.26622194 265.31480236 44.86835051 265.30649769 C40.43413913 265.30295758 35.99993185 265.30113341 31.56571913 265.30060399 C26.34964581 265.29960296 21.13360254 265.29352611 15.91753912 265.28343785 C13.99740358 265.28050522 12.07726459 265.27928901 10.1571269 265.27986538 C7.54763108 265.28035246 4.93822075 265.27473625 2.32873678 265.26745617 C1.55871515 265.26900478 0.78869352 265.27055338 -0.0046621 265.27214891 C-5.21869047 265.24792199 -5.21869047 265.24792199 -6.33286905 264.13374341 C-6.43030333 262.72728247 -6.45842337 261.31595222 -6.45871019 259.90612042 C-6.46262181 258.52985934 -6.46262181 258.52985934 -6.46661246 257.12579501 C-6.46438174 256.10607057 -6.46215101 255.08634613 -6.4598527 254.03572094 C-6.46141269 252.96159781 -6.46297268 251.88747468 -6.46457994 250.78080237 C-6.46859501 247.15169097 -6.46539834 243.5226208 -6.46226358 239.89350903 C-6.4636174 237.30388374 -6.46539722 234.71425864 -6.46757364 232.12463391 C-6.47203197 225.80309227 -6.47105459 219.48156247 -6.468161 213.16002035 C-6.46590721 208.0246582 -6.46559434 202.88929939 -6.46668482 197.75393689 C-6.46691467 196.6596932 -6.46691467 196.6596932 -6.46714916 195.54334357 C-6.46746887 194.06161984 -6.46779308 192.5798961 -6.46812175 191.09817237 C-6.47097673 177.18764306 -6.46768925 163.27712034 -6.46232139 149.36659211 C-6.45785333 137.41771607 -6.45862926 125.46884974 -6.46324015 113.51997387 C-6.4685856 99.66092388 -6.47070204 85.80187966 -6.46762788 71.94282877 C-6.46730932 70.46640249 -6.46699495 68.98997621 -6.46668482 67.51354992 C-6.46653054 66.78702462 -6.46637627 66.06049932 -6.46621732 65.3119581 C-6.46535207 60.17978264 -6.46681519 55.04761081 -6.46916437 49.91543591 C-6.47225366 43.01432954 -6.47007007 36.11324189 -6.46427011 29.21213734 C-6.46294173 26.67116653 -6.46333794 24.13019419 -6.46553278 21.58922398 C-6.46824124 18.1367166 -6.4648669 14.68426935 -6.4598527 11.23176587 C-6.46208342 10.21204143 -6.46431414 9.19231699 -6.46661246 8.1416918 C-6.46400471 7.22418442 -6.46139696 6.30667703 -6.45871019 5.36136639 C-6.45854784 4.56335661 -6.45838549 3.76534683 -6.45821822 2.94315493 C-6.18477664 -1.00396629 -3.28186766 0.0123217 0 0 Z " fill="#0073AE" transform="translate(1083.332869052887,283.8662565946579)"/>
<path d="M0 0 C0.77070375 0.00223072 1.5414075 0.00446144 2.33546591 0.00675976 C3.14824169 0.00519977 3.96101747 0.00363978 4.79842281 0.00203252 C7.54308834 -0.00198088 10.28769931 0.00121347 13.03236532 0.00434887 C14.99145684 0.00299498 16.9505481 0.00121512 18.90963888 -0.00096118 C24.24625978 -0.00553697 29.58286145 -0.00374536 34.91948271 -0.0005821 C40.49108703 0.00194076 46.06268965 -0.00039583 51.63429403 -0.00196826 C60.99273619 -0.00379018 70.35117046 -0.00138308 79.70961142 0.00337231 C90.54606508 0.00881497 101.38249993 0.00705233 112.21895313 0.00154591 C121.50468864 -0.0029846 130.79041846 -0.00363608 140.07615471 -0.00101542 C145.63009878 0.00054769 151.18403399 0.00074017 156.7379775 -0.00255191 C161.95813714 -0.00542972 167.1782724 -0.0034566 172.39842939 0.00234234 C174.3201781 0.00367043 176.24192883 0.00327501 178.16367674 0.00107968 C180.77541134 -0.00162994 183.38706653 0.00174697 185.99879599 0.00675976 C187.15485161 0.00341368 187.15485161 0.00341368 188.33426189 0 C193.5529811 0.01959356 193.5529811 0.01959356 194.66713095 1.13374341 C194.76560061 2.69373389 194.79511712 4.25814885 194.79652548 5.82124341 C194.79967764 6.81897778 194.8028298 7.81671216 194.80607748 8.84468091 C194.80304113 10.47276684 194.80304113 10.47276684 194.79994345 12.13374341 C194.80090017 13.23975903 194.8018569 14.34577466 194.80284262 15.48530591 C194.80352461 17.82905648 194.80166899 20.17280893 194.79750204 22.51655591 C194.79215408 26.11816128 194.79744641 29.71964194 194.8038497 33.32124341 C194.80318892 35.59207702 194.80190776 37.86291055 194.79994345 40.13374341 C194.80196768 41.21913403 194.80399191 42.30452466 194.80607748 43.42280591 C194.80134924 44.91940747 194.80134924 44.91940747 194.79652548 46.44624341 C194.79572989 47.32925122 194.79493429 48.21225903 194.79411459 49.12202466 C194.66713095 51.13374341 194.66713095 51.13374341 193.66713095 52.13374341 C192.03489639 52.22980205 190.39848705 52.25562161 188.76342916 52.25399792 C187.17109205 52.25605992 187.17109205 52.25605992 185.54658651 52.25816357 C183.78468985 52.25277066 183.78468985 52.25277066 181.98719931 52.2472688 C180.75810339 52.24741482 179.52900747 52.24756085 178.26266623 52.2477113 C174.88264423 52.24713233 171.50268266 52.24210304 168.12267137 52.23513734 C164.59391901 52.22890329 161.06516592 52.22829997 157.5364089 52.22711194 C150.84989976 52.22399877 144.16340689 52.21578559 137.47690493 52.20576245 C129.86638792 52.19460084 122.25587015 52.18909074 114.645347 52.18406701 C98.98593221 52.17360296 83.32653367 52.15600381 67.66713095 52.13374341 C67.64186402 59.52102442 67.62429934 66.90829438 67.61219931 74.29560864 C67.60715731 76.81091235 67.60032392 79.32621312 67.59169149 81.84150708 C67.57962001 85.44804115 67.57390146 89.05453663 67.5694747 92.66108716 C67.56431341 93.79336239 67.55915213 94.92563763 67.55383444 96.09222424 C67.55372114 97.6537296 67.55372114 97.6537296 67.55360556 99.24678051 C67.55138494 100.16833432 67.54916433 101.08988812 67.54687643 102.03936779 C67.43341114 104.12182703 67.43341114 104.12182703 68.66713095 105.13374341 C70.14296127 105.2250855 71.62316685 105.24675593 73.10180807 105.24053967 C74.05950598 105.23902401 75.01720388 105.23750836 76.00392294 105.23594677 C77.06316977 105.22920941 78.12241659 105.22247204 79.21376181 105.21553051 C80.32260229 105.21246396 81.43144278 105.2093974 82.57388449 105.20623791 C84.99061879 105.19906356 87.40734725 105.18966371 89.82406569 105.17834294 C93.6430603 105.16103692 97.46201358 105.15068063 101.28103781 105.14242566 C112.14244294 105.11789471 123.00378869 105.08237349 133.86512899 105.03779614 C140.49926496 105.01065254 147.13338116 104.99399353 153.7675662 104.98292744 C156.30302327 104.97669849 158.83847384 104.96666962 161.37390089 104.95284855 C164.91301136 104.93372997 168.45195058 104.92674989 171.99110556 104.92256176 C173.04832815 104.91380017 174.10555075 104.90503857 175.19481039 104.89601147 C176.15532812 104.89731564 177.11584585 104.89861981 178.10547018 104.8999635 C178.94300298 104.89682109 179.78053577 104.89367869 180.64344835 104.89044106 C182.66713095 105.13374341 182.66713095 105.13374341 184.66713095 107.13374341 C184.91436911 109.26571667 184.91436911 109.26571667 184.91005087 111.9347688 C184.9131275 112.93242764 184.91620413 113.93008648 184.91937399 114.95797741 C184.90859571 116.57832142 184.90859571 116.57832142 184.8975997 118.23139966 C184.89714148 119.33600033 184.89668325 120.44060101 184.89621115 121.57867444 C184.89318642 123.91645899 184.88529359 126.25424148 184.87294149 128.59199536 C184.85468929 132.18475943 184.85243172 135.77726595 184.85267782 139.37007153 C184.84776269 141.63634982 184.84193439 143.90262635 184.8350997 146.16889966 C184.83398687 147.25115323 184.83287405 148.3334068 184.8317275 149.44845593 C184.82534765 150.44296261 184.8189678 151.4374693 184.81239462 152.46211255 C184.80858282 153.34210415 184.80477102 154.22209576 184.80084372 155.12875378 C184.66713095 157.13374341 184.66713095 157.13374341 183.66713095 158.13374341 C182.18696701 158.22942916 180.70224821 158.25562608 179.21899557 158.25399792 C177.77811323 158.25605992 177.77811323 158.25605992 176.30812216 158.25816357 C175.24573324 158.2545683 174.18334433 158.25097302 173.08876181 158.2472688 C171.4206822 158.24748784 171.4206822 158.24748784 169.71890402 158.2477113 C166.02324144 158.24701161 162.32762853 158.2392166 158.6319747 158.23139966 C156.07749601 158.22953567 153.52301697 158.22811168 150.96853781 158.22711194 C144.91951385 158.22367685 138.8705114 158.21578605 132.82149607 158.20576245 C125.93647941 158.19460024 119.05146191 158.18909059 112.16643846 158.18406701 C97.99999265 158.1736034 83.83356278 158.15600463 69.66713095 158.13374341 C67.9709235 161.32802839 67.41817316 163.43217903 67.42421103 167.0700227 C67.4211344 168.04750973 67.41805777 169.02499676 67.41488791 170.03210461 C67.42207342 171.0801376 67.42925894 172.12817059 67.4366622 173.20796216 C67.43712042 174.28753689 67.43757864 175.36711163 67.43805075 176.47940075 C67.44106935 178.75815443 67.4489439 181.03690611 67.4613204 183.31562817 C67.47961518 186.81822459 67.48182979 190.32055725 67.48158407 193.82319653 C67.48649785 196.03478738 67.49232556 198.24637642 67.4991622 200.45796216 C67.50027502 201.51206784 67.50138784 202.56617352 67.50253439 203.6522218 C67.50891424 204.62025235 67.51529409 205.5882829 67.52186728 206.5856477 C67.52567907 207.44184201 67.52949087 208.29803631 67.53341818 209.1801759 C67.45245724 211.1381267 67.45245724 211.1381267 68.66713095 212.13374341 C70.28411606 212.2397558 71.90570862 212.27615098 73.52613974 212.28523266 C74.5778385 212.29357632 75.62953726 212.30191998 76.71310568 212.31051648 C77.87678167 212.31470089 79.04045767 212.31888531 80.23939657 212.32319653 C81.45713263 212.33148983 82.67486868 212.33978314 83.92950583 212.34832776 C86.58361193 212.36577437 89.23765956 212.38142134 91.8917861 212.39410412 C96.08439788 212.41427494 100.27693928 212.44193357 104.46949911 212.47077954 C113.36867684 212.53094293 122.26789662 212.58275717 131.16713095 212.63374341 C140.77298175 212.68877805 150.37881128 212.74520187 159.98459339 212.81129229 C164.15654795 212.83970961 168.32849401 212.86328099 172.50049734 212.88321698 C175.69864539 212.89969885 178.89674962 212.92250974 182.09486532 212.94429028 C183.25854132 212.9484747 184.42221731 212.95265912 185.62115622 212.95697033 C186.67285498 212.96531399 187.72455374 212.97365765 188.80812216 212.98225415 C190.18748072 212.98998475 190.18748072 212.98998475 191.5947051 212.99787152 C193.66713095 213.13374341 193.66713095 213.13374341 194.66713095 214.13374341 C194.7603981 215.69921389 194.78458677 217.26887113 194.78065634 218.83711255 C194.78058081 219.83807461 194.78050528 220.83903668 194.78042746 221.87033093 C194.77526617 222.95885861 194.77010489 224.04738629 194.7647872 225.16889966 C194.76266478 226.8314806 194.76266478 226.8314806 194.76049948 228.52764904 C194.75488128 232.0838741 194.7423257 235.64003724 194.72963095 239.19624341 C194.72461829 241.60053937 194.72005498 244.00483633 194.71595907 246.40913403 C194.70490594 252.31735844 194.68815011 258.2255465 194.66713095 264.13374341 C191.57345419 265.68058179 188.3114176 265.27064079 184.91650534 265.26072705 C184.10695869 265.26228704 183.29741203 265.26384703 182.46333367 265.26545429 C179.73559358 265.26946066 177.00790861 265.26627605 174.28016806 265.26313794 C172.33078113 265.26449213 170.38139445 265.26627216 168.43200827 265.268448 C163.12643729 265.2730199 157.82088568 265.27123383 152.51531434 265.26806891 C146.97441237 265.26554443 141.43351211 265.26788306 135.89261007 265.26945508 C126.58722271 265.27127636 117.28184328 265.26887138 107.97645712 265.2641145 C97.20189861 265.25867036 86.42735902 265.2604358 75.65280098 265.2659409 C66.4180003 265.2704713 57.18320533 265.27112299 47.94840389 265.26850224 C42.42577384 265.26693926 36.90315269 265.26674628 31.3805232 265.27003872 C26.19071897 265.27291643 21.00093925 265.27094361 15.81113768 265.26514447 C13.90067603 265.26381639 11.99021234 265.26421178 10.07975149 265.26640713 C7.48339695 265.26911676 4.88712229 265.26573985 2.29077291 265.26072705 C1.14157689 265.26407313 1.14157689 265.26407313 -0.03083521 265.26748681 C-5.2187191 265.24789336 -5.2187191 265.24789336 -6.33286905 264.13374341 C-6.43030333 262.72728247 -6.45842337 261.31595222 -6.45871019 259.90612042 C-6.46262181 258.52985934 -6.46262181 258.52985934 -6.46661246 257.12579501 C-6.46438174 256.10607057 -6.46215101 255.08634613 -6.4598527 254.03572094 C-6.46141269 252.96159781 -6.46297268 251.88747468 -6.46457994 250.78080237 C-6.46859501 247.15169097 -6.46539834 243.5226208 -6.46226358 239.89350903 C-6.4636174 237.30388374 -6.46539722 234.71425864 -6.46757364 232.12463391 C-6.47203197 225.80309227 -6.47105459 219.48156247 -6.468161 213.16002035 C-6.46590721 208.0246582 -6.46559434 202.88929939 -6.46668482 197.75393689 C-6.46691467 196.6596932 -6.46691467 196.6596932 -6.46714916 195.54334357 C-6.46746887 194.06161984 -6.46779308 192.5798961 -6.46812175 191.09817237 C-6.47097673 177.18764306 -6.46768925 163.27712034 -6.46232139 149.36659211 C-6.45785333 137.41771607 -6.45862926 125.46884974 -6.46324015 113.51997387 C-6.4685856 99.66092388 -6.47070204 85.80187966 -6.46762788 71.94282877 C-6.46730932 70.46640249 -6.46699495 68.98997621 -6.46668482 67.51354992 C-6.46653054 66.78702462 -6.46637627 66.06049932 -6.46621732 65.3119581 C-6.46535207 60.17978264 -6.46681519 55.04761081 -6.46916437 49.91543591 C-6.47225366 43.01432954 -6.47007007 36.11324189 -6.46427011 29.21213734 C-6.46294173 26.67116653 -6.46333794 24.13019419 -6.46553278 21.58922398 C-6.46824124 18.1367166 -6.4648669 14.68426935 -6.4598527 11.23176587 C-6.46208342 10.21204143 -6.46431414 9.19231699 -6.46661246 8.1416918 C-6.46400471 7.22418442 -6.46139696 6.30667703 -6.45871019 5.36136639 C-6.45854784 4.56335661 -6.45838549 3.76534683 -6.45821822 2.94315493 C-6.18477664 -1.00396629 -3.28186766 0.0123217 0 0 Z " fill="#0073AE" transform="translate(601.332869052887,283.8662565946579)"/>
<path d="M0 0 C49.2215625 -0.0309375 49.2215625 -0.0309375 99.4375 -0.0625 C115.00764282 -0.07615601 115.00764282 -0.07615601 130.89233398 -0.09008789 C143.51965332 -0.09460449 143.51965332 -0.09460449 149.42176819 -0.09544373 C153.56422964 -0.09637938 157.70667841 -0.1001427 161.84913635 -0.10557556 C167.12249611 -0.11240071 172.39583725 -0.11449749 177.66920102 -0.11307228 C179.61114643 -0.11337059 181.55309246 -0.11537347 183.4950341 -0.11921513 C186.10502543 -0.12414116 188.71494312 -0.12300766 191.32493591 -0.12025452 C192.48168619 -0.12462351 192.48168619 -0.12462351 193.66180515 -0.12908077 C198.88587517 -0.11412483 198.88587517 -0.11412483 200 1 C200.09846967 2.55999048 200.12798618 4.12440544 200.12939453 5.6875 C200.13254669 6.68523437 200.13569885 7.68296875 200.13894653 8.7109375 C200.13591019 10.33902344 200.13591019 10.33902344 200.1328125 12 C200.13376923 13.10601562 200.13472595 14.21203125 200.13571167 15.3515625 C200.13639367 17.69531308 200.13453804 20.03906553 200.13037109 22.3828125 C200.12502314 25.98441788 200.13031547 29.58589853 200.13671875 33.1875 C200.13605797 35.45833361 200.13477682 37.72916714 200.1328125 40 C200.13483673 41.08539063 200.13686096 42.17078125 200.13894653 43.2890625 C200.13421829 44.78566406 200.13421829 44.78566406 200.12939453 46.3125 C200.12859894 47.19550781 200.12780334 48.07851563 200.12698364 48.98828125 C200 51 200 51 199 52 C197.36776544 52.09605864 195.7313561 52.12187821 194.09629822 52.12025452 C192.50396111 52.12231651 192.50396111 52.12231651 190.87945557 52.12442017 C189.1175589 52.11902725 189.1175589 52.11902725 187.32006836 52.11352539 C186.09097244 52.11367142 184.86187653 52.11381744 183.59553528 52.1139679 C180.21551328 52.11338892 176.83555171 52.10835964 173.45554042 52.10139394 C169.92678806 52.09515988 166.39803497 52.09455656 162.86927795 52.09336853 C156.18276881 52.09025537 149.49627594 52.08204218 142.80977398 52.07201904 C135.19925697 52.06085744 127.5887392 52.05534733 119.97821605 52.05032361 C104.31879966 52.03985956 88.6594057 52.02151426 73 52 C73.33 69.49 73.66 86.98 74 105 C82.20617187 104.97679687 90.41234375 104.95359375 98.8671875 104.9296875 C104.71250488 104.91817522 110.55781379 104.90792164 116.4031353 104.89949226 C123.98313769 104.88839298 131.56309625 104.87428378 139.14306641 104.84912109 C145.78254217 104.82709097 152.42198288 104.81544454 159.06149673 104.81024551 C161.59974032 104.80653854 164.1379812 104.79930021 166.67620468 104.78853989 C170.22022956 104.77410771 173.76405613 104.77201858 177.30810547 104.77294922 C178.36689911 104.76575867 179.42569275 104.75856812 180.51657104 104.75115967 C181.47853394 104.753909 182.44049683 104.75665833 183.43161011 104.75949097 C184.27044172 104.75764738 185.10927334 104.75580379 185.97352409 104.75390434 C188 105 188 105 190 107 C190.24723816 109.13197327 190.24723816 109.13197327 190.24291992 111.80102539 C190.24599655 112.79868423 190.24907318 113.79634308 190.25224304 114.82423401 C190.24146477 116.44457802 190.24146477 116.44457802 190.23046875 118.09765625 C190.23001053 119.20225693 190.22955231 120.3068576 190.2290802 121.44493103 C190.22605547 123.78271558 190.21816264 126.12049808 190.20581055 128.45825195 C190.18755834 132.05101603 190.18530078 135.64352254 190.18554688 139.23632812 C190.18063174 141.50260641 190.17480344 143.76888294 190.16796875 146.03515625 C190.16685593 147.11740982 190.1657431 148.19966339 190.16459656 149.31471252 C190.15821671 150.30921921 190.15183685 151.30372589 190.14526367 152.32836914 C190.14145187 153.20836075 190.13764008 154.08835236 190.13371277 154.99501038 C190 157 190 157 189 158 C187.5075948 158.10783729 186.0101535 158.14682146 184.51390076 158.15821838 C183.06039719 158.17290161 183.06039719 158.17290161 181.57752991 158.18788147 C180.50579025 158.19363693 179.4340506 158.1993924 178.32983398 158.20532227 C176.64712402 158.22017166 176.64712402 158.22017166 174.93041992 158.23532104 C171.20233306 158.26704559 167.47423344 158.29173662 163.74609375 158.31640625 C161.16919107 158.33696633 158.59229183 158.35796253 156.01539612 158.37937927 C149.91328074 158.42903593 143.81114709 158.47427578 137.70898253 158.51740164 C130.08264541 158.57156781 122.45636381 158.63244353 114.83007812 158.69335938 C101.22009466 158.80204093 87.61006085 158.90053291 74 159 C74 176.49 74 193.98 74 212 C136.37 212.495 136.37 212.495 200 213 C200 229.83 200 246.66 200 264 C198.25598189 265.74401811 195.98585484 265.12242727 193.66180515 265.12908077 C192.8906383 265.12616811 192.11947145 265.12325544 191.32493591 265.12025452 C190.51342575 265.12111053 189.70191559 265.12196655 188.86581421 265.12284851 C186.11681984 265.12451392 183.36788536 265.1189636 180.61889648 265.11352539 C178.62632531 265.1132193 176.63375403 265.11335212 174.6411829 265.11389065 C169.28545038 265.11411722 163.92974003 265.10830429 158.57401276 265.10128021 C153.5558922 265.09560243 148.53777715 265.09531803 143.51965332 265.09460449 C128.82559926 265.08934865 114.13154935 265.07538762 99.4375 265.0625 C66.623125 265.041875 33.80875 265.02125 0 265 C0 177.55 0 90.1 0 0 Z " fill="#0073AE" transform="translate(837,284)"/>
<path d="M0 0 C0.70079681 -0.00175232 1.40159363 -0.00350464 2.12362671 -0.00531006 C4.45093224 -0.00972813 6.77816239 -0.00679076 9.10546875 -0.00341797 C10.71590184 -0.00409102 12.32633484 -0.00506106 13.93676758 -0.00631714 C17.3162533 -0.00779405 20.69571265 -0.00563978 24.07519531 -0.00097656 C28.4167338 0.00472073 32.75821048 0.00144169 37.0997467 -0.00454903 C40.42647776 -0.00815482 43.75319405 -0.00701597 47.07992554 -0.00442123 C48.68118293 -0.00375202 50.28244165 -0.00458021 51.88369751 -0.00690079 C54.11781386 -0.00942762 56.35182875 -0.00558632 58.5859375 0 C60.49669067 0.00119339 60.49669067 0.00119339 62.44604492 0.00241089 C65.29296875 0.12939453 65.29296875 0.12939453 66.29296875 1.12939453 C66.38951357 2.53682224 66.4166874 3.94907584 66.41601658 5.35981083 C66.41800763 6.27793491 66.41999868 7.196059 66.42205006 8.14200503 C66.41913722 9.16241159 66.41622438 10.18281815 66.41322327 11.23414612 C66.41407769 12.30897481 66.41493212 13.38380351 66.41581243 14.49120277 C66.41747042 18.12265105 66.41194067 21.75405397 66.40649414 25.38549805 C66.40621231 27.97674559 66.40636992 30.56799322 66.40693665 33.15924072 C66.40746206 38.75338276 66.40431341 44.34751318 66.39869881 49.9416523 C66.39058621 58.02992761 66.38796883 66.11819727 66.38671082 74.2064762 C66.38451992 87.32783954 66.3778588 100.44919667 66.3684082 113.57055664 C66.35923507 126.31990528 66.35215375 139.06925224 66.34790039 151.81860352 C66.34763767 152.60392063 66.34737494 153.38923774 66.34710426 154.19835234 C66.34579926 158.13789244 66.34453554 162.07743255 66.34329236 166.01697266 C66.33291856 198.7211178 66.31529922 231.42525534 66.29296875 264.12939453 C63.37751088 265.58712347 60.82023595 265.25672305 57.56420898 265.25878906 C56.52742508 265.26141754 56.52742508 265.26141754 55.46969604 265.26409912 C53.18029282 265.26850795 50.89096654 265.26558338 48.6015625 265.26220703 C47.01497889 265.26288027 45.42839539 265.26385047 43.84181213 265.2651062 C40.51538105 265.2665818 37.1889768 265.26443276 33.86254883 265.25976562 C29.58941994 265.25406378 25.31635379 265.25735109 21.0432272 265.26333809 C17.76711042 265.26694347 14.49100865 265.2658053 11.21489143 265.2632103 C9.63875382 265.2625412 8.06261486 265.26336883 6.48647881 265.26568985 C4.28839358 265.26821651 2.09041149 265.26437584 -0.10766602 265.25878906 C-1.36072037 265.25799347 -2.61377472 265.25719788 -3.90480042 265.25637817 C-6.70703125 265.12939453 -6.70703125 265.12939453 -7.70703125 264.12939453 C-7.80446553 262.7229336 -7.83258557 261.31160335 -7.83287239 259.90177155 C-7.83678401 258.52551047 -7.83678401 258.52551047 -7.84077466 257.12144613 C-7.83854393 256.10172169 -7.83631321 255.08199725 -7.83401489 254.03137207 C-7.83557488 252.95724894 -7.83713487 251.88312581 -7.83874214 250.7764535 C-7.84275721 247.1473421 -7.83956054 243.51827193 -7.83642578 239.88916016 C-7.8377796 237.29953486 -7.83955942 234.70990977 -7.84173584 232.12028503 C-7.84619417 225.79874339 -7.84521679 219.47721359 -7.8423232 213.15567148 C-7.84006941 208.02030933 -7.83975654 202.88495051 -7.84084702 197.74958801 C-7.84107686 196.65534432 -7.84107686 196.65534432 -7.84131136 195.5389947 C-7.84163107 194.05727096 -7.84195528 192.57554723 -7.84228395 191.09382349 C-7.84513893 177.18329419 -7.84185144 163.27277146 -7.83648358 149.36224324 C-7.83201553 137.41336719 -7.83279146 125.46450087 -7.83740234 113.515625 C-7.8427478 99.656575 -7.84486423 85.79753078 -7.84179008 71.9384799 C-7.84147151 70.46205362 -7.84115714 68.98562733 -7.84084702 67.50920105 C-7.84069274 66.78267575 -7.84053846 66.05615045 -7.84037951 65.30760923 C-7.83951427 60.17543376 -7.84097739 55.04326194 -7.84332657 49.91108704 C-7.84641586 43.00998066 -7.84423227 36.10889301 -7.83843231 29.20778847 C-7.83710393 26.66681766 -7.83750014 24.12584531 -7.83969498 21.58487511 C-7.84240344 18.13236773 -7.8390291 14.67992048 -7.83401489 11.22741699 C-7.83624561 10.20769255 -7.83847634 9.18796811 -7.84077466 8.13734293 C-7.83816691 7.21983554 -7.83555916 6.30232816 -7.83287239 5.35701752 C-7.83271004 4.55900774 -7.83254769 3.76099795 -7.83238041 2.93880606 C-7.53486305 -1.35584835 -3.42941338 0.00214189 0 0 Z " fill="#0073AE" transform="translate(491.70703125,283.87060546875)"/>
<path d="M0 0 C3.96 0 7.92 0 12 0 C21 20.75 21 20.75 21 28 C21.66 28 22.32 28 23 28 C24.32 32.62 25.64 37.24 27 42 C27.66 40.35 28.32 38.7 29 37 C30.58202953 35.11133353 32.23458302 33.28043596 33.9375 31.5 C37.1443492 28.13729509 39.65139788 24.9926236 42 21 C44.57185594 17.90688836 47.29052177 14.97598428 50 12 C43.4 11.67 36.8 11.34 30 11 C30 7.37 30 3.74 30 0 C41.88 0 53.76 0 66 0 C66 11 66 11 64.1015625 14.12109375 C63.28429687 14.88550781 62.46703125 15.64992188 61.625 16.4375 C58.73906347 19.21807694 56.66657392 21.36105878 55 25 C53.3563186 26.68933922 51.6857124 28.35259924 50 30 C47.03 33.465 47.03 33.465 44 37 C51.59 37.33 59.18 37.66 67 38 C67 41.63 67 45.26 67 49 C50.5 49 34 49 17 49 C15.68 45.7 14.36 42.4 13 39 C7.72 38.67 2.44 38.34 -3 38 C-3.33 40.31 -3.66 42.62 -4 45 C-4.33 46.32 -4.66 47.64 -5 49 C-8.63 49 -12.26 49 -16 49 C-15.28965589 39.94311262 -12.48375248 31.42075199 -9 23.0625 C-6.42690536 16.88503072 -4.74689876 10.44865818 -3 4 C-2.34 4 -1.68 4 -1 4 C-0.67 2.68 -0.34 1.36 0 0 Z M5 12 C3.68 17.28 2.36 22.56 1 28 C3.97 28 6.94 28 10 28 C8.98408579 22.53135543 7.92908943 17.23609987 6 12 C5.67 12 5.34 12 5 12 Z " fill="#0073AE" transform="translate(639,561)"/>
<path d="M0 0 C1.5631897 0.00785522 1.5631897 0.00785522 3.15795898 0.01586914 C4.28266602 0.0190918 5.40737305 0.02231445 6.56616211 0.02563477 C7.75016602 0.03401367 8.93416992 0.04239258 10.15405273 0.05102539 C11.34192383 0.05553711 12.52979492 0.06004883 13.75366211 0.06469727 C16.69967499 0.07652864 19.64558954 0.09301252 22.59155273 0.11352539 C22.59155273 0.77352539 22.59155273 1.43352539 22.59155273 2.11352539 C23.31342773 2.17540039 24.03530273 2.23727539 24.77905273 2.30102539 C28.72544495 3.44109425 30.19780664 4.76228086 32.59155273 8.11352539 C33.23788228 11.55690177 33.24750643 14.67121972 32.59155273 18.11352539 C30.59155273 20.73852539 30.59155273 20.73852539 28.59155273 22.11352539 C29.39592773 22.93852539 30.20030273 23.76352539 31.02905273 24.61352539 C34.02786895 28.22573584 34.75889074 31.46524735 34.59155273 36.11352539 C33.63496619 40.63557089 32.23458123 43.25817873 28.59155273 46.11352539 C22.08309163 49.7891026 15.99525869 49.46379232 8.65405273 49.30102539 C6.91285156 49.28072266 6.91285156 49.28072266 5.13647461 49.26000977 C2.28765691 49.22483918 -0.56006466 49.1729782 -3.40844727 49.11352539 C-3.43371617 42.29590645 -3.45127971 35.4782995 -3.46337891 28.66064453 C-3.4684206 26.33935088 -3.47525378 24.01806042 -3.48388672 21.69677734 C-3.49595951 18.36823744 -3.50167705 15.03973937 -3.50610352 11.71118164 C-3.5112648 10.66640152 -3.51642609 9.6216214 -3.52174377 8.54518127 C-3.52181931 7.58426071 -3.52189484 6.62334015 -3.52197266 5.63330078 C-3.52419327 4.78280655 -3.52641388 3.93231232 -3.52870178 3.05604553 C-3.34770819 0.13238232 -2.93399213 0.13829765 0 0 Z M8.59155273 10.11352539 C8.59155273 13.08352539 8.59155273 16.05352539 8.59155273 19.11352539 C15.39533367 19.47594963 15.39533367 19.47594963 21.59155273 17.11352539 C21.59155273 15.46352539 21.59155273 13.81352539 21.59155273 12.11352539 C17.168244 9.5366437 13.62242334 9.96555861 8.59155273 10.11352539 Z M8.59155273 29.11352539 C8.59155273 32.08352539 8.59155273 35.05352539 8.59155273 38.11352539 C10.5495878 38.16741626 12.50804182 38.20626756 14.46655273 38.23852539 C15.55709961 38.26172852 16.64764648 38.28493164 17.77124023 38.30883789 C20.72865783 38.41413073 20.72865783 38.41413073 22.59155273 36.11352539 C22.75836382 33.03004713 22.75836382 33.03004713 22.59155273 30.11352539 C19.82703241 28.73126523 17.54541643 29.01827152 14.46655273 29.05102539 C13.37084961 29.06004883 12.27514648 29.06907227 11.14624023 29.07836914 C9.88166992 29.09577148 9.88166992 29.09577148 8.59155273 29.11352539 Z " fill="#0073AE" transform="translate(1064.408447265625,560.886474609375)"/>
<path d="M0 0 C0 0.66 0 1.32 0 2 C0.9075 2.226875 1.815 2.45375 2.75 2.6875 C7.35070333 4.54547634 9.1145441 7.18481541 11.25 11.5625 C12 14 12 14 12 18 C10.20866022 18.05391993 8.41686101 18.09275571 6.625 18.125 C5.62726562 18.14820313 4.62953125 18.17140625 3.6015625 18.1953125 C1 18 1 18 -1 16 C-1 14.68 -1 13.36 -1 12 C-5.60556307 10.46481231 -10.72414672 10.34120037 -15.375 11.6875 C-17.66213705 13.534803 -18.10514262 15.20070254 -19 18 C-19.315336 21.44697176 -19.315336 21.44697176 -19.25 25.0625 C-19.25515625 26.27035156 -19.2603125 27.47820313 -19.265625 28.72265625 C-18.95116413 32.68966921 -18.95116413 32.68966921 -17 36 C-14.61157583 37.34147542 -14.61157583 37.34147542 -11.875 38.25 C-10.96492187 38.58515625 -10.05484375 38.9203125 -9.1171875 39.265625 C-8.41851563 39.50796875 -7.71984375 39.7503125 -7 40 C-7 39.34 -7 38.68 -7 38 C-4.69 37.34 -2.38 36.68 0 36 C0.33 34.68 0.66 33.36 1 32 C0.36191406 32.01160156 -0.27617188 32.02320313 -0.93359375 32.03515625 C-1.75988281 32.04417969 -2.58617187 32.05320312 -3.4375 32.0625 C-4.67306641 32.07990234 -4.67306641 32.07990234 -5.93359375 32.09765625 C-8 32 -8 32 -9 31 C-9 28.03 -9 25.06 -9 22 C-1.74 22 5.52 22 13 22 C13 30.91 13 39.82 13 49 C10.36 49 7.72 49 5 49 C4.67 48.01 4.34 47.02 4 46 C3.34 46 2.68 46 2 46 C2 46.66 2 47.32 2 48 C-4.18239299 50.06079766 -13.17222293 50.13051522 -19.43359375 48.28125 C-23.95946409 45.78143743 -28.35627135 42.22829148 -29.8125 37.1875 C-29.874375 36.465625 -29.93625 35.74375 -30 35 C-30.66 35 -31.32 35 -32 35 C-32.81243525 31.44075986 -33.13524922 28.14872305 -33.125 24.5 C-33.12757813 23.5821875 -33.13015625 22.664375 -33.1328125 21.71875 C-33.00244035 19.04995546 -32.59378606 16.60134847 -32 14 C-31.34 14 -30.68 14 -30 14 C-29.896875 13.443125 -29.79375 12.88625 -29.6875 12.3125 C-28.14306465 7.11758108 -25.47744164 3.72394863 -20.87109375 0.9375 C-14.26261828 -1.22036954 -6.86196409 -0.32990212 0 0 Z " fill="#0073AE" transform="translate(761,561)"/>
<path d="M0 0 C18.8178301 -1.29141971 18.8178301 -1.29141971 26.2734375 5.0625 C30.03108549 9.27922716 30 12.47940171 30 18 C26.37 18 22.74 18 19 18 C18.566875 17.030625 18.13375 16.06125 17.6875 15.0625 C16.2985139 11.72268235 16.2985139 11.72268235 13 11 C8.04624138 10.63305492 4.89587373 10.77199034 1 14 C-0.77282208 17.58888373 -1.27237765 20.51677816 -1.25 24.5 C-1.25515625 25.4178125 -1.2603125 26.335625 -1.265625 27.28125 C-0.97488207 30.25708937 -0.40785407 32.36140898 1 35 C2.68046157 36.21526985 2.68046157 36.21526985 4.625 36.8125 C5.73875 37.204375 6.8525 37.59625 8 38 C8 38.66 8 39.32 8 40 C9.32 40 10.64 40 12 40 C12 39.34 12 38.68 12 38 C13.134375 37.566875 14.26875 37.13375 15.4375 36.6875 C16.613125 36.130625 17.78875 35.57375 19 35 C19.33 34.01 19.66 33.02 20 32 C19.28972656 32.01160156 18.57945312 32.02320313 17.84765625 32.03515625 C16.92855469 32.04417969 16.00945313 32.05320312 15.0625 32.0625 C14.14597656 32.07410156 13.22945312 32.08570313 12.28515625 32.09765625 C10 32 10 32 9 31 C8.8671875 29.1875 8.8671875 29.1875 8.875 27 C8.87113281 25.9171875 8.87113281 25.9171875 8.8671875 24.8125 C9 23 9 23 10 22 C11.56172745 21.91314397 13.12729344 21.89297781 14.69140625 21.90234375 C15.54162354 21.90484131 16.39184082 21.90733887 17.26782227 21.90991211 C18.35506592 21.91901611 19.44230957 21.92812012 20.5625 21.9375 C24.006875 21.958125 27.45125 21.97875 31 22 C31 30.91 31 39.82 31 49 C28.36 49 25.72 49 23 49 C23 48.01 23 47.02 23 46 C22.17886719 46.48984375 21.35773437 46.9796875 20.51171875 47.484375 C16.48174147 49.22367554 13.11085279 49.3767717 8.8125 49.25 C8.10158203 49.24484375 7.39066406 49.2396875 6.65820312 49.234375 C3.52404234 49.18720043 0.99090091 48.99696697 -2 48 C-2 47.34 -2 46.68 -2 46 C-2.7425 45.7525 -3.485 45.505 -4.25 45.25 C-8.71066325 43.22242579 -10.53294955 40.95139906 -12.6875 36.5625 C-16.50166064 26.20977826 -14.6049409 18.57437466 -10.6875 8.6875 C-8.59490266 5.35484498 -6.43937861 3.86299675 -3 2 C-2.01 2 -1.02 2 0 2 C0 1.34 0 0.68 0 0 Z " fill="#0073AE" transform="translate(589,561)"/>
<path d="M0 0 C6.27 0 12.54 0 19 0 C19 0.66 19 1.32 19 2 C19.8353125 2.12375 19.8353125 2.12375 20.6875 2.25 C24.01450876 3.32902987 25.63096092 4.37484858 28 7 C28.73418513 10.38895599 28.86223524 13.50995941 29 17 C25.37 17 21.74 17 18 17 C17.34 15.35 16.68 13.7 16 12 C14.94021067 10.71387324 14.94021067 10.71387324 12.49609375 10.90234375 C11.48675781 10.91394531 10.47742188 10.92554688 9.4375 10.9375 C8.42558594 10.94652344 7.41367187 10.95554687 6.37109375 10.96484375 C5.58863281 10.97644531 4.80617188 10.98804688 4 11 C3.67 12.98 3.34 14.96 3 17 C4.01707031 17.16435547 4.01707031 17.16435547 5.0546875 17.33203125 C23.82360487 20.52950609 23.82360487 20.52950609 29 27 C31.67927341 31.01891012 31.15601248 33.24161923 31 38 C30.34 38 29.68 38 29 38 C28.95875 38.721875 28.9175 39.44375 28.875 40.1875 C27.63721895 44.16608196 25.32298855 45.60744824 22 48 C18.08611124 49.30462959 14.33127024 49.26328854 10.25 49.3125 C9.07050781 49.35600586 9.07050781 49.35600586 7.8671875 49.40039062 C2.07244366 49.46295846 -1.24702522 48.34742582 -6 45 C-7.4375 42.75 -7.4375 42.75 -8 41 C-8.66 41 -9.32 41 -10 41 C-10.33 38.03 -10.66 35.06 -11 32 C-7.04 32 -3.08 32 1 32 C1.66 33.65 2.32 35.3 3 37 C6.03525486 39.02350324 7.19426202 39.32124018 10.6875 39.625 C11.49574219 39.69976563 12.30398438 39.77453125 13.13671875 39.8515625 C13.75160156 39.90054688 14.36648438 39.94953125 15 40 C15 39.34 15 38.68 15 38 C15.99 37.34 16.98 36.68 18 36 C17.67 35.01 17.34 34.02 17 33 C16.34 32.67 15.68 32.34 15 32 C15 31.34 15 30.68 15 30 C13.88625 29.896875 12.7725 29.79375 11.625 29.6875 C3.85065774 28.67945917 -2.90195879 27.37255151 -8 21 C-10.67927341 16.98108988 -10.15601248 14.75838077 -10 10 C-9.34 10 -8.68 10 -8 10 C-7.9071875 9.13375 -7.9071875 9.13375 -7.8125 8.25 C-6.66615826 5.07551517 -4.74043158 3.87151425 -2 2 C-1.34 2 -0.68 2 0 2 C0 1.34 0 0.68 0 0 Z " fill="#0073AE" transform="translate(808,561)"/>
<path d="M0 0 C11.55 0 23.1 0 35 0 C35 12.35171386 35 12.35171386 30.4375 17.125 C29.51425494 18.12764642 28.59238855 19.131564 27.671875 20.13671875 C26.34929688 21.55404297 26.34929688 21.55404297 25 23 C23.18156698 25.29386303 21.42335213 27.62282839 19.66796875 29.96484375 C17.61987793 32.46380234 15.28467395 34.71532605 13 37 C20.59 37.33 28.18 37.66 36 38 C36 41.63 36 45.26 36 49 C23.46 49 10.92 49 -2 49 C-2 36.64615385 -2 36.64615385 1.9375 32.5 C2.75347656 31.60152344 3.56945312 30.70304688 4.41015625 29.77734375 C5.26480469 28.86082031 6.11945313 27.94429687 7 27 C8.63913552 25.03252435 10.26465858 23.0536118 11.875 21.0625 C12.59429687 20.18722656 13.31359375 19.31195312 14.0546875 18.41015625 C15.74965977 16.31016049 17.38078761 14.15894985 19 12 C12.73 11.67 6.46 11.34 0 11 C0 7.37 0 3.74 0 0 Z " fill="#0073AE" transform="translate(492,561)"/>
<path d="M0 0 C3.96 0 7.92 0 12 0 C15.3231629 6.18619555 17.53728346 12.34970361 19.5625 19.0625 C21.43343256 25.20629405 23.37978532 31.13463437 26 37 C27.43975079 41.39502872 28 44.30875799 28 49 C24.37 49 20.74 49 17 49 C14 42.5 14 42.5 14 38 C6.08 38.495 6.08 38.495 -2 39 C-2.99 42.3 -3.98 45.6 -5 49 C-8.63 49 -12.26 49 -16 49 C-15.34332598 43.10595022 -13.85775936 37.66316473 -12.125 32 C-11.86847656 31.13632812 -11.61195313 30.27265625 -11.34765625 29.3828125 C-10.20643287 25.60932011 -9.03099445 21.91900697 -7.44140625 18.30859375 C-5.97253546 14.93695809 -4.86539276 11.58424476 -3.8125 8.0625 C-3.29623047 6.34740234 -3.29623047 6.34740234 -2.76953125 4.59765625 C-2.51558594 3.74042969 -2.26164063 2.88320313 -2 2 C-1.34 2 -0.68 2 0 2 C0 1.34 0 0.68 0 0 Z M5 13 C3.68 17.95 2.36 22.9 1 28 C4.3 28 7.6 28 11 28 C8.8092006 20.39230548 8.8092006 20.39230548 6 13 C5.67 13 5.34 13 5 13 Z " fill="#0073AE" transform="translate(545,561)"/>
<path d="M0 0 C3.63 0 7.26 0 11 0 C11 16.17 11 32.34 11 49 C6.33333333 49 1.66666667 49 -3 49 C-3.90492188 49.04640625 -4.80984375 49.0928125 -5.7421875 49.140625 C-14.11600388 49.43297769 -14.11600388 49.43297769 -18.0625 47.5 C-23.15807643 40.92506267 -23.84714531 34.07141229 -23 26 C-22.05265585 21.3422246 -20.53524217 18.58503214 -17.3125 15.0625 C-13.50258213 12.69028699 -10.48332734 11.67858499 -6 12 C-4.02 12.66 -2.04 13.32 0 14 C0 9.38 0 4.76 0 0 Z M-9.125 22.4375 C-11.81346514 26.11173569 -12.20252877 29.49762961 -12 34 C-11.00871316 37.48864806 -11.00871316 37.48864806 -9 40 C-7.02077346 41.05901922 -7.02077346 41.05901922 -5 41 C-4.34 40.67 -3.68 40.34 -3 40 C-3 39.34 -3 38.68 -3 38 C-2.01 37.67 -1.02 37.34 0 37 C0 32.38 0 27.76 0 23 C-4.68584415 20.47804314 -4.68584415 20.47804314 -9.125 22.4375 Z " fill="#0073AE" transform="translate(925,561)"/>
<path d="M0 0 C3.63 0 7.26 0 11 0 C11.33 4.95 11.66 9.9 12 15 C13.485 14.2265625 13.485 14.2265625 15 13.4375 C19.17231912 11.67228807 22.70170227 11.49514524 27 13 C29.64233769 15.19257809 31.46669809 16.93339618 33 20 C33.08559118 22.17824961 33.10713412 24.35915255 33.09765625 26.5390625 C33.09443359 27.84101562 33.09121094 29.14296875 33.08789062 30.484375 C33.07953466 31.86458399 33.07106971 33.24479232 33.0625 34.625 C33.05748501 36.01301926 33.0529221 37.40104022 33.04882812 38.7890625 C33.03700976 42.19275132 33.02053434 45.59635439 33 49 C29.37 49 25.74 49 22 49 C21.67 40.09 21.34 31.18 21 22 C18.69 22.33 16.38 22.66 14 23 C13.67 23.66 13.34 24.32 13 25 C12.34 25 11.68 25 11 25 C11 32.92 11 40.84 11 49 C7.37 49 3.74 49 0 49 C0 32.83 0 16.66 0 0 Z " fill="#0073AE" transform="translate(1243,561)"/>
<path d="M0 0 C5.03769272 6.29932154 4.50473579 12.57449879 4.3125 20.375 C4.29799805 22.17517578 4.29799805 22.17517578 4.28320312 24.01171875 C4.16833405 32.83166595 4.16833405 32.83166595 3 34 C1.20969562 34.07289513 -0.58333718 34.08366137 -2.375 34.0625 C-3.35210938 34.05347656 -4.32921875 34.04445313 -5.3359375 34.03515625 C-6.65464844 34.01775391 -6.65464844 34.01775391 -8 34 C-10.09508486 34 -12.19019135 34.01273689 -14.28515625 34.03515625 C-15.53167969 34.04417969 -16.77820312 34.05320312 -18.0625 34.0625 C-19.31160156 34.07410156 -20.56070312 34.08570313 -21.84765625 34.09765625 C-25 34 -25 34 -27 33 C-27 32.34 -27 31.68 -27 31 C-27.99 30.67 -28.98 30.34 -30 30 C-31.73944004 26.52111991 -31.44164938 22.80345813 -31 19 C-29.45052868 15.76019633 -28.09710886 14.48650967 -24.82421875 13.03515625 C-19.09745641 11.10248529 -14.01072563 10.70915844 -8 11 C-8.66 9.35 -9.32 7.7 -10 6 C-12.31 6 -14.62 6 -17 6 C-17.66 7.32 -18.32 8.64 -19 10 C-22.63 10 -26.26 10 -30 10 C-29.77135767 6.03686632 -29.6254271 3.70123645 -26.9375 0.6875 C-19.60000299 -3.52765786 -7.29607918 -5.36653758 0 0 Z M-18.8125 20.375 C-20.26473287 21.96527869 -20.26473287 21.96527869 -19.6875 24.1875 C-19.460625 24.785625 -19.23375 25.38375 -19 26 C-16.00507424 26.68066494 -13.69912251 27.17005683 -10.6875 26.4375 C-8.18964306 24.30969594 -8.27514008 22.16411094 -8 19 C-9.43655854 18.91868537 -10.8744483 18.86066441 -12.3125 18.8125 C-13.11300781 18.77769531 -13.91351562 18.74289062 -14.73828125 18.70703125 C-17.07320653 18.81897989 -17.07320653 18.81897989 -18.8125 20.375 Z " fill="#0073AE" transform="translate(1159,576)"/>
<path d="M0 0 C3.47821953 3.05661716 5.90367773 5.98604387 6.3125 10.6875 C6.23 11.38875 6.1475 12.09 6.0625 12.8125 C6.7225 12.8125 7.3825 12.8125 8.0625 12.8125 C8.10504356 14.81204746 8.10330783 16.81291636 8.0625 18.8125 C6.34806781 20.52693219 4.05804759 20.04302967 1.71484375 20.12890625 C0.63525391 20.17080078 -0.44433594 20.21269531 -1.55664062 20.25585938 C-2.69294922 20.29517578 -3.82925781 20.33449219 -5 20.375 C-6.71026367 20.43977539 -6.71026367 20.43977539 -8.45507812 20.50585938 C-11.28242195 20.61232839 -14.10985738 20.71434207 -16.9375 20.8125 C-16.2775 22.7925 -15.6175 24.7725 -14.9375 26.8125 C-13.47802295 26.75243922 -12.01970728 26.6636311 -10.5625 26.5625 C-9.75039063 26.51609375 -8.93828125 26.4696875 -8.1015625 26.421875 C-7.38742187 26.22078125 -6.67328125 26.0196875 -5.9375 25.8125 C-5.2775 24.4925 -4.6175 23.1725 -3.9375 21.8125 C-0.6375 21.8125 2.6625 21.8125 6.0625 21.8125 C5.8089147 26.12345008 5.4779009 28.30964628 2.6875 31.6875 C-1.53379092 35.10473551 -5.24256384 34.96718535 -10.4375 34.9375 C-11.11425781 34.94136719 -11.79101562 34.94523438 -12.48828125 34.94921875 C-15.57823767 34.94312416 -17.98429311 34.7969023 -20.9375 33.8125 C-20.9375 33.1525 -20.9375 32.4925 -20.9375 31.8125 C-21.535625 31.565 -22.13375 31.3175 -22.75 31.0625 C-25.77687612 29.33285651 -27.46784703 27.33158443 -28.50390625 23.98046875 C-29.87018805 17.14905977 -29.41415985 10.92662594 -25.9375 4.8125 C-19.41373649 -3.34220438 -9.26758192 -3.74646929 0 0 Z M-13.9375 5.8125 C-14.2675 6.8025 -14.5975 7.7925 -14.9375 8.8125 C-15.5975 8.8125 -16.2575 8.8125 -16.9375 8.8125 C-16.9375 9.8025 -16.9375 10.7925 -16.9375 11.8125 C-12.9775 11.8125 -9.0175 11.8125 -4.9375 11.8125 C-5.2675 10.1625 -5.5975 8.5125 -5.9375 6.8125 C-8.64629335 5.45810332 -10.94683268 5.74748549 -13.9375 5.8125 Z " fill="#0073AE" transform="translate(969.9375,575.1875)"/>
<path d="M0 0 C3 2.375 3 2.375 5 5 C5 5.99 5 6.98 5 8 C5.66 8 6.32 8 7 8 C7 17.24 7 26.48 7 36 C3.04 36 -0.92 36 -5 36 C-5.06058594 34.30230469 -5.12117188 32.60460937 -5.18359375 30.85546875 C-5.26799875 28.63280374 -5.35264677 26.41014795 -5.4375 24.1875 C-5.47681641 23.06794922 -5.51613281 21.94839844 -5.55664062 20.79492188 C-5.59853516 19.72177734 -5.64042969 18.64863281 -5.68359375 17.54296875 C-5.72025146 16.55321045 -5.75690918 15.56345215 -5.79467773 14.54370117 C-5.90790331 11.8781649 -5.90790331 11.8781649 -7 9 C-9.97065509 9.34227572 -9.97065509 9.34227572 -13 10 C-14.28605661 12.57211322 -14.21043941 14.56906966 -14.31640625 17.4453125 C-14.35830078 18.52167969 -14.40019531 19.59804688 -14.44335938 20.70703125 C-14.50233398 22.39892578 -14.50233398 22.39892578 -14.5625 24.125 C-14.60568359 25.26066406 -14.64886719 26.39632812 -14.69335938 27.56640625 C-14.79965945 30.37745261 -14.90035397 33.1887099 -15 36 C-18.96 36 -22.92 36 -27 36 C-27 24.12 -27 12.24 -27 0 C-21.66666667 0 -16.33333333 0 -11 0 C-7.14713253 -1.28428916 -3.85646233 -1.11042106 0 0 Z " fill="#0073AE" transform="translate(1195,574)"/>
<path d="M0 0 C2.32183783 1.7860291 2.73527279 3.46656118 3.625 6.25 C3.85205078 9.47973633 3.85205078 9.47973633 3.8203125 13.08203125 C3.81386719 14.37431641 3.80742188 15.66660156 3.80078125 16.99804688 C3.78407327 18.3528673 3.76714342 19.70768501 3.75 21.0625 C3.73996003 22.43684251 3.73083596 23.81119203 3.72265625 25.18554688 C3.69911242 28.54054317 3.66622567 31.89518199 3.625 35.25 C-0.005 35.25 -3.635 35.25 -7.375 35.25 C-7.87 22.38 -7.87 22.38 -8.375 9.25 C-9.695 8.92 -11.015 8.59 -12.375 8.25 C-15.35104867 9.9283306 -15.35104867 9.9283306 -17.375 13.25 C-17.9546963 16.85600825 -17.80177655 20.36134944 -17.625 24 C-17.5640806 25.91134615 -17.50659546 27.82280596 -17.453125 29.734375 C-17.41606445 30.57709961 -17.37900391 31.41982422 -17.34082031 32.28808594 C-17.375 34.25 -17.375 34.25 -18.375 35.25 C-22.005 35.25 -25.635 35.25 -29.375 35.25 C-29.375 23.37 -29.375 11.49 -29.375 -0.75 C-18.375 -0.75 -18.375 -0.75 -16.375 0.25 C-15.50875 -0.08 -14.6425 -0.41 -13.75 -0.75 C-8.82633772 -2.2088629 -4.92293572 -1.55461128 0 0 Z " fill="#0073AE" transform="translate(1010.375,574.75)"/>
<path d="M0 0 C3.96 0 7.92 0 12 0 C12.33 8.58 12.66 17.16 13 26 C16.63619656 27.08084521 16.63619656 27.08084521 19 27 C19 26.34 19 25.68 19 25 C19.66 24.67 20.32 24.34 21 24 C21.33 16.08 21.66 8.16 22 0 C25.63 0 29.26 0 33 0 C33 11.88 33 23.76 33 36 C29.37 36 25.74 36 22 36 C21.67 35.34 21.34 34.68 21 34 C20.01 34.66 19.02 35.32 18 36 C15.22265625 36.3359375 15.22265625 36.3359375 12.0625 36.375 C11.02222656 36.40335938 9.98195313 36.43171875 8.91015625 36.4609375 C5.2396797 35.87957343 4.19920634 34.96179467 2 32 C0.31552708 27.76950981 -0.24025185 24.2654365 -0.1953125 19.7265625 C-0.18886719 18.57285156 -0.18242188 17.41914062 -0.17578125 16.23046875 C-0.15902344 15.04066406 -0.14226563 13.85085938 -0.125 12.625 C-0.11597656 11.41199219 -0.10695313 10.19898438 -0.09765625 8.94921875 C-0.07416682 5.96606071 -0.03829821 2.98300468 0 0 Z " fill="#0073AE" transform="translate(864,574)"/>
<path d="M0 0 C2.06461497 2.10707492 3.68442993 4.35751875 5 7 C4.8125 9.9375 4.8125 9.9375 4 12 C0.62114388 12.28526928 -2.63291991 12.46087248 -6 12 C-8.125 9.5 -8.125 9.5 -9 7 C-10.98 7.33 -12.96 7.66 -15 8 C-15.97771193 10.9331358 -16.13419011 12.88178994 -16.125 15.9375 C-16.12757812 16.79214844 -16.13015625 17.64679687 -16.1328125 18.52734375 C-16.00930254 20.82680852 -15.64420687 22.79640348 -15 25 C-12.69 25 -10.38 25 -8 25 C-7.34 23.35 -6.68 21.7 -6 20 C-2.7 20 0.6 20 4 20 C5 24 5 24 3.375 27 C0.11282891 31.12063716 -2.19363251 33.67028231 -7.48828125 34.63671875 C-19.08529924 34.79071388 -19.08529924 34.79071388 -23.8125 30.75 C-28.31153194 26.10199349 -29.2918005 22.52764454 -29.3125 16.0625 C-29.32925781 14.85722656 -29.34601563 13.65195312 -29.36328125 12.41015625 C-28.73151479 6.47970337 -25.4792097 2.76660816 -21 -1 C-14.42074322 -3.83811077 -6.22676704 -3.85281211 0 0 Z " fill="#0073AE" transform="translate(1235,576)"/>
<path d="M0 0 C3.96 0 7.92 0 12 0 C12 2.64 12 5.28 12 8 C13.98 8 15.96 8 18 8 C18 10.97 18 13.94 18 17 C16.02 17 14.04 17 12 17 C12.33 22.94 12.66 28.88 13 35 C14.65 35.33 16.3 35.66 18 36 C18 38.64 18 41.28 18 44 C15.87506859 44.02693575 13.75004088 44.04636628 11.625 44.0625 C10.44164062 44.07410156 9.25828125 44.08570313 8.0390625 44.09765625 C5 44 5 44 3 43 C3 42.34 3 41.68 3 41 C2.34 40.67 1.68 40.34 1 40 C0 39 0 39 -0.11352539 36.86694336 C-0.10828857 35.95050049 -0.10305176 35.03405762 -0.09765625 34.08984375 C-0.09443359 33.10048828 -0.09121094 32.11113281 -0.08789062 31.09179688 C-0.07951172 30.05087891 -0.07113281 29.00996094 -0.0625 27.9375 C-0.05798828 26.89271484 -0.05347656 25.84792969 -0.04882812 24.77148438 C-0.03699913 22.1809334 -0.02051689 19.59049441 0 17 C-1.32 17 -2.64 17 -4 17 C-4 14.03 -4 11.06 -4 8 C-2.68 8 -1.36 8 0 8 C0 5.36 0 2.72 0 0 Z " fill="#0073AE" transform="translate(844,566)"/>
<path d="M0 0 C3.96 0 7.92 0 12 0 C12 2.64 12 5.28 12 8 C13.65 8 15.3 8 17 8 C17 10.97 17 13.94 17 17 C15.35 17 13.7 17 12 17 C12.33 23.27 12.66 29.54 13 36 C14.98 35.505 14.98 35.505 17 35 C17 37.97 17 40.94 17 44 C15.08458862 44.10841951 13.16740227 44.18578079 11.25 44.25 C10.18265625 44.29640625 9.1153125 44.3428125 8.015625 44.390625 C4.32566594 43.91265103 3.27373274 42.86872822 1 40 C-0.2263757 37.54724859 -0.11415314 35.9494219 -0.09765625 33.2109375 C-0.09282227 31.79941406 -0.09282227 31.79941406 -0.08789062 30.359375 C-0.07951172 29.37453125 -0.07113281 28.3896875 -0.0625 27.375 C-0.05798828 26.38242187 -0.05347656 25.38984375 -0.04882812 24.3671875 C-0.03702145 21.9113984 -0.020554 19.45572896 0 17 C-1.32 17 -2.64 17 -4 17 C-4 14.03 -4 11.06 -4 8 C-2.68 8 -1.36 8 0 8 C0 5.36 0 2.72 0 0 Z " fill="#0073AE" transform="translate(1021,566)"/>
<path d="M0 0 C3.63 0 7.26 0 11 0 C12.58681989 1.58681989 12.12728536 3.21248346 12.12939453 5.41210938 C12.13254669 6.34978149 12.13569885 7.28745361 12.13894653 8.25354004 C12.1369223 9.27330933 12.13489807 10.29307861 12.1328125 11.34375 C12.13376923 12.38317749 12.13472595 13.42260498 12.13571167 14.49353027 C12.13639363 16.69604554 12.13453827 18.89856279 12.13037109 21.10107422 C12.12502308 24.48539719 12.13031559 27.86958744 12.13671875 31.25390625 C12.13605797 33.38802113 12.13477681 35.52213592 12.1328125 37.65625 C12.13483673 38.67601929 12.13686096 39.69578857 12.13894653 40.74645996 C12.13579437 41.68413208 12.13264221 42.6218042 12.12939453 43.58789062 C12.12820114 44.83246033 12.12820114 44.83246033 12.12698364 46.10217285 C12 48 12 48 11 49 C7.37 49 3.74 49 0 49 C0 32.83 0 16.66 0 0 Z " fill="#0073AE" transform="translate(711,561)"/>
<path d="M0 0 C0 3.3 0 6.6 0 10 C-1.0725 9.938125 -2.145 9.87625 -3.25 9.8125 C-7.24203064 10.01210153 -8.26648371 10.24021413 -11 13 C-11.64070996 15.50074174 -11.64070996 15.50074174 -11.609375 18.32421875 C-11.64160156 19.35224609 -11.67382812 20.38027344 -11.70703125 21.43945312 C-11.72830078 23.04723633 -11.72830078 23.04723633 -11.75 24.6875 C-11.77964844 25.77095703 -11.80929687 26.85441406 -11.83984375 27.97070312 C-11.91057582 30.64673317 -11.95754753 33.32337197 -12 36 C-15.63 36 -19.26 36 -23 36 C-23 24.12 -23 12.24 -23 0 C-19.37 0 -15.74 0 -12 0 C-11.67 0.66 -11.34 1.32 -11 2 C-10.113125 1.484375 -9.22625 0.96875 -8.3125 0.4375 C-4.79976669 -1.0868937 -3.55293493 -1.14947895 0 0 Z " fill="#0073AE" transform="translate(1127,574)"/>
<path d="M0 0 C1 4 1 4 1 4 Z " fill="#0073AE" transform="translate(746,736)"/>
<path d="" fill="#0073AE" transform="translate(0,0)"/>
<path d="" fill="#0073AE" transform="translate(0,0)"/>
<path d="M0 0 C2 1 2 1 2 1 Z " fill="#0073AE" transform="translate(705,736)"/>
<path d="" fill="#0073AE" transform="translate(0,0)"/>
<path d="" fill="#0073AE" transform="translate(0,0)"/>
<path d="" fill="#0073AE" transform="translate(0,0)"/>
<path d="" fill="#0073AE" transform="translate(0,0)"/>
<path d="" fill="#0073AE" transform="translate(0,0)"/>
<path d="" fill="#0073AE" transform="translate(0,0)"/>
<path d="" fill="#0073AE" transform="translate(0,0)"/>
</svg>
